<svg xmlns="http://www.w3.org/2000/svg" xmlns:xlink="http://www.w3.org/1999/xlink" width="200" zoomAndPan="magnify" viewBox="0 0 150 149.999998" height="200" preserveAspectRatio="xMidYMid meet" version="1.2"><defs><clipPath id="c758e8aca6"><path d="M 22.964844 15 L 127 15 L 127 135 L 22.964844 135 Z M 22.964844 15 "/></clipPath></defs><g id="d4420af748"><path style=" stroke:none;fill-rule:nonzero;fill:#f7acb9;fill-opacity:1;" d="M 96.996094 95 C 96.730469 95 96.472656 94.972656 96.214844 94.921875 C 95.957031 94.871094 95.707031 94.796875 95.464844 94.695312 C 95.222656 94.59375 94.992188 94.472656 94.773438 94.324219 C 94.554688 94.179688 94.351562 94.015625 94.167969 93.828125 C 93.980469 93.644531 93.816406 93.441406 93.667969 93.222656 C 93.523438 93.003906 93.398438 92.773438 93.300781 92.53125 C 93.199219 92.289062 93.121094 92.039062 93.070312 91.78125 C 93.019531 91.523438 92.996094 91.261719 92.996094 91 L 92.996094 87 C 92.996094 86.476562 92.945312 85.953125 92.839844 85.4375 C 92.738281 84.925781 92.585938 84.425781 92.386719 83.9375 C 92.183594 83.453125 91.9375 82.992188 91.648438 82.554688 C 91.355469 82.117188 91.023438 81.714844 90.652344 81.34375 C 90.28125 80.972656 89.875 80.640625 89.4375 80.347656 C 89.003906 80.054688 88.542969 79.808594 88.054688 79.609375 C 87.570312 79.40625 87.070312 79.257812 86.554688 79.152344 C 86.039062 79.050781 85.519531 79 84.996094 79 C 84.730469 79 84.472656 79.050781 84.230469 79.152344 C 83.984375 79.253906 83.769531 79.398438 83.582031 79.585938 C 83.394531 79.773438 83.25 79.988281 83.148438 80.234375 C 83.046875 80.480469 82.996094 80.734375 82.996094 81 C 82.996094 81.265625 83.046875 81.519531 83.148438 81.765625 C 83.25 82.011719 83.394531 82.226562 83.582031 82.414062 C 83.769531 82.601562 83.984375 82.746094 84.230469 82.847656 C 84.472656 82.949219 84.730469 83 84.996094 83 C 85.257812 83 85.519531 83.027344 85.773438 83.078125 C 86.03125 83.128906 86.28125 83.203125 86.527344 83.304688 C 86.769531 83.40625 87 83.527344 87.21875 83.675781 C 87.433594 83.820312 87.636719 83.984375 87.824219 84.171875 C 88.007812 84.355469 88.175781 84.558594 88.320312 84.777344 C 88.464844 84.996094 88.589844 85.226562 88.691406 85.46875 C 88.789062 85.710938 88.867188 85.960938 88.917969 86.21875 C 88.96875 86.476562 88.996094 86.738281 88.996094 87 L 88.996094 91 C 88.996094 92.148438 89.230469 93.246094 89.703125 94.292969 C 90.179688 95.339844 90.847656 96.242188 91.710938 97 C 90.847656 97.757812 90.179688 98.660156 89.703125 99.707031 C 89.230469 100.753906 88.996094 101.851562 88.996094 103 L 88.996094 107 C 88.996094 107.261719 88.96875 107.523438 88.917969 107.78125 C 88.867188 108.039062 88.789062 108.289062 88.691406 108.53125 C 88.589844 108.773438 88.464844 109.003906 88.320312 109.222656 C 88.175781 109.441406 88.007812 109.644531 87.824219 109.828125 C 87.636719 110.015625 87.433594 110.179688 87.21875 110.324219 C 87 110.472656 86.769531 110.59375 86.527344 110.695312 C 86.28125 110.796875 86.03125 110.871094 85.773438 110.921875 C 85.519531 110.972656 85.257812 111 84.996094 111 C 84.730469 111 84.472656 111.050781 84.230469 111.152344 C 83.984375 111.253906 83.769531 111.398438 83.582031 111.585938 C 83.394531 111.773438 83.25 111.988281 83.148438 112.234375 C 83.046875 112.480469 82.996094 112.734375 82.996094 113 C 82.996094 113.265625 83.046875 113.519531 83.148438 113.765625 C 83.25 114.011719 83.394531 114.226562 83.582031 114.414062 C 83.769531 114.601562 83.984375 114.746094 84.230469 114.847656 C 84.472656 114.949219 84.730469 115 84.996094 115 C 85.519531 115 86.039062 114.949219 86.554688 114.847656 C 87.070312 114.742188 87.570312 114.59375 88.054688 114.390625 C 88.542969 114.191406 89.003906 113.945312 89.4375 113.652344 C 89.875 113.359375 90.28125 113.027344 90.652344 112.65625 C 91.023438 112.285156 91.355469 111.882812 91.648438 111.445312 C 91.9375 111.007812 92.183594 110.546875 92.386719 110.0625 C 92.585938 109.574219 92.738281 109.074219 92.839844 108.5625 C 92.945312 108.046875 92.996094 107.523438 92.996094 107 L 92.996094 103 C 92.996094 102.738281 93.019531 102.476562 93.070312 102.21875 C 93.121094 101.960938 93.199219 101.710938 93.300781 101.46875 C 93.398438 101.226562 93.523438 100.996094 93.667969 100.777344 C 93.816406 100.558594 93.980469 100.355469 94.167969 100.171875 C 94.351562 99.984375 94.554688 99.820312 94.773438 99.675781 C 94.992188 99.527344 95.222656 99.40625 95.464844 99.304688 C 95.707031 99.203125 95.957031 99.128906 96.214844 99.078125 C 96.472656 99.027344 96.730469 99 96.996094 99 C 97.261719 99 97.515625 98.949219 97.761719 98.847656 C 98.003906 98.746094 98.222656 98.601562 98.410156 98.414062 C 98.597656 98.226562 98.742188 98.011719 98.84375 97.765625 C 98.945312 97.519531 98.996094 97.265625 98.996094 97 C 98.996094 96.734375 98.945312 96.480469 98.84375 96.234375 C 98.742188 95.988281 98.597656 95.773438 98.410156 95.585938 C 98.222656 95.398438 98.003906 95.253906 97.761719 95.152344 C 97.515625 95.050781 97.261719 95 96.996094 95 Z M 96.996094 95 "/><path style=" stroke:none;fill-rule:nonzero;fill:#f7acb9;fill-opacity:1;" d="M 52.996094 87 C 52.996094 86.738281 53.019531 86.476562 53.070312 86.21875 C 53.121094 85.960938 53.199219 85.710938 53.300781 85.46875 C 53.398438 85.226562 53.523438 84.996094 53.667969 84.777344 C 53.816406 84.558594 53.980469 84.355469 54.167969 84.171875 C 54.351562 83.984375 54.554688 83.820312 54.773438 83.675781 C 54.992188 83.527344 55.222656 83.40625 55.464844 83.304688 C 55.707031 83.203125 55.957031 83.128906 56.214844 83.078125 C 56.472656 83.027344 56.730469 83 56.996094 83 C 57.261719 83 57.515625 82.949219 57.761719 82.847656 C 58.003906 82.746094 58.222656 82.601562 58.410156 82.414062 C 58.597656 82.226562 58.742188 82.011719 58.84375 81.765625 C 58.945312 81.519531 58.996094 81.265625 58.996094 81 C 58.996094 80.734375 58.945312 80.480469 58.84375 80.234375 C 58.742188 79.988281 58.597656 79.773438 58.410156 79.585938 C 58.222656 79.398438 58.003906 79.253906 57.761719 79.152344 C 57.515625 79.050781 57.261719 79 56.996094 79 C 56.46875 79 55.949219 79.050781 55.433594 79.152344 C 54.917969 79.257812 54.417969 79.40625 53.933594 79.609375 C 53.449219 79.808594 52.988281 80.054688 52.550781 80.347656 C 52.113281 80.640625 51.710938 80.972656 51.339844 81.34375 C 50.964844 81.714844 50.636719 82.117188 50.34375 82.554688 C 50.050781 82.992188 49.804688 83.453125 49.605469 83.9375 C 49.402344 84.425781 49.25 84.925781 49.148438 85.4375 C 49.046875 85.953125 48.996094 86.476562 48.996094 87 L 48.996094 91 C 48.996094 91.261719 48.96875 91.523438 48.917969 91.78125 C 48.867188 92.039062 48.789062 92.289062 48.691406 92.53125 C 48.589844 92.773438 48.464844 93.003906 48.320312 93.222656 C 48.175781 93.441406 48.007812 93.644531 47.824219 93.828125 C 47.636719 94.015625 47.433594 94.179688 47.21875 94.324219 C 47 94.472656 46.769531 94.59375 46.527344 94.695312 C 46.28125 94.796875 46.03125 94.871094 45.773438 94.921875 C 45.519531 94.972656 45.257812 95 44.996094 95 C 44.730469 95 44.472656 95.050781 44.230469 95.152344 C 43.984375 95.253906 43.769531 95.398438 43.582031 95.585938 C 43.394531 95.773438 43.25 95.988281 43.148438 96.234375 C 43.046875 96.480469 42.996094 96.734375 42.996094 97 C 42.996094 97.265625 43.046875 97.519531 43.148438 97.765625 C 43.25 98.011719 43.394531 98.226562 43.582031 98.414062 C 43.769531 98.601562 43.984375 98.746094 44.230469 98.847656 C 44.472656 98.949219 44.730469 99 44.996094 99 C 45.257812 99 45.519531 99.027344 45.773438 99.078125 C 46.03125 99.128906 46.28125 99.203125 46.527344 99.304688 C 46.769531 99.40625 47 99.527344 47.21875 99.675781 C 47.433594 99.820312 47.636719 99.984375 47.824219 100.171875 C 48.007812 100.355469 48.175781 100.558594 48.320312 100.777344 C 48.464844 100.996094 48.589844 101.226562 48.691406 101.46875 C 48.789062 101.710938 48.867188 101.960938 48.917969 102.21875 C 48.96875 102.476562 48.996094 102.738281 48.996094 103 L 48.996094 107 C 48.996094 107.523438 49.046875 108.046875 49.148438 108.5625 C 49.25 109.074219 49.402344 109.574219 49.605469 110.0625 C 49.804688 110.546875 50.050781 111.007812 50.34375 111.445312 C 50.636719 111.882812 50.964844 112.285156 51.339844 112.65625 C 51.710938 113.027344 52.113281 113.359375 52.550781 113.652344 C 52.988281 113.945312 53.449219 114.191406 53.933594 114.390625 C 54.417969 114.59375 54.917969 114.742188 55.433594 114.847656 C 55.949219 114.949219 56.46875 115 56.996094 115 C 57.261719 115 57.515625 114.949219 57.761719 114.847656 C 58.003906 114.746094 58.222656 114.601562 58.410156 114.414062 C 58.597656 114.226562 58.742188 114.011719 58.84375 113.765625 C 58.945312 113.519531 58.996094 113.265625 58.996094 113 C 58.996094 112.734375 58.945312 112.480469 58.84375 112.234375 C 58.742188 111.988281 58.597656 111.773438 58.410156 111.585938 C 58.222656 111.398438 58.003906 111.253906 57.761719 111.152344 C 57.515625 111.050781 57.261719 111 56.996094 111 C 56.730469 111 56.472656 110.972656 56.214844 110.921875 C 55.957031 110.871094 55.707031 110.796875 55.464844 110.695312 C 55.222656 110.59375 54.992188 110.472656 54.773438 110.324219 C 54.554688 110.179688 54.351562 110.015625 54.167969 109.828125 C 53.980469 109.644531 53.816406 109.441406 53.667969 109.222656 C 53.523438 109.003906 53.398438 108.773438 53.300781 108.53125 C 53.199219 108.289062 53.121094 108.039062 53.070312 107.78125 C 53.019531 107.523438 52.996094 107.261719 52.996094 107 L 52.996094 103 C 52.996094 101.851562 52.757812 100.753906 52.285156 99.707031 C 51.8125 98.660156 51.144531 97.757812 50.28125 97 C 51.144531 96.242188 51.8125 95.339844 52.285156 94.292969 C 52.757812 93.246094 52.996094 92.148438 52.996094 91 Z M 52.996094 87 "/><g clip-rule="nonzero" clip-path="url(#c758e8aca6)"><path style=" stroke:none;fill-rule:nonzero;fill:#f7acb9;fill-opacity:1;" d="M 124.996094 15 L 32.996094 15 C 32.730469 15 32.472656 15.050781 32.230469 15.152344 C 31.984375 15.253906 31.769531 15.398438 31.582031 15.585938 C 31.394531 15.773438 31.25 15.988281 31.148438 16.234375 C 31.046875 16.480469 30.996094 16.734375 30.996094 17 L 30.996094 23 L 24.996094 23 C 24.730469 23 24.472656 23.050781 24.230469 23.152344 C 23.984375 23.253906 23.769531 23.398438 23.582031 23.585938 C 23.394531 23.773438 23.25 23.988281 23.148438 24.234375 C 23.046875 24.480469 22.996094 24.734375 22.996094 25 L 22.996094 133 C 22.996094 133.265625 23.046875 133.519531 23.148438 133.765625 C 23.25 134.011719 23.394531 134.226562 23.582031 134.414062 C 23.769531 134.601562 23.984375 134.746094 24.230469 134.847656 C 24.472656 134.949219 24.730469 135 24.996094 135 L 116.996094 135 C 117.261719 135 117.515625 134.949219 117.761719 134.847656 C 118.003906 134.746094 118.222656 134.601562 118.410156 134.414062 C 118.597656 134.226562 118.742188 134.011719 118.84375 133.765625 C 118.945312 133.519531 118.996094 133.265625 118.996094 133 L 118.996094 127 L 124.996094 127 C 125.261719 127 125.515625 126.949219 125.761719 126.847656 C 126.003906 126.746094 126.222656 126.601562 126.410156 126.414062 C 126.597656 126.226562 126.742188 126.011719 126.84375 125.765625 C 126.945312 125.519531 126.996094 125.265625 126.996094 125 L 126.996094 17 C 126.996094 16.734375 126.945312 16.480469 126.84375 16.234375 C 126.742188 15.988281 126.597656 15.773438 126.410156 15.585938 C 126.222656 15.398438 126.003906 15.253906 125.761719 15.152344 C 125.515625 15.050781 125.261719 15 124.996094 15 Z M 32.996094 41 C 32.996094 40.34375 33.058594 39.691406 33.1875 39.050781 C 33.316406 38.40625 33.503906 37.78125 33.757812 37.171875 C 34.007812 36.566406 34.316406 35.992188 34.679688 35.445312 C 35.046875 34.898438 35.460938 34.394531 35.921875 33.929688 C 36.386719 33.464844 36.894531 33.050781 37.4375 32.683594 C 37.984375 32.320312 38.5625 32.011719 39.167969 31.761719 C 39.773438 31.511719 40.398438 31.320312 41.042969 31.191406 C 41.6875 31.0625 42.339844 31 42.996094 31 L 46.996094 31 C 47.261719 31 47.515625 31.050781 47.761719 31.152344 C 48.003906 31.253906 48.222656 31.398438 48.410156 31.585938 C 48.597656 31.773438 48.742188 31.988281 48.84375 32.234375 C 48.945312 32.480469 48.996094 32.734375 48.996094 33 C 48.996094 33.265625 48.945312 33.519531 48.84375 33.765625 C 48.742188 34.011719 48.597656 34.226562 48.410156 34.414062 C 48.222656 34.601562 48.003906 34.746094 47.761719 34.847656 C 47.515625 34.949219 47.261719 35 46.996094 35 L 42.996094 35 C 42.601562 35 42.210938 35.039062 41.824219 35.117188 C 41.441406 35.195312 41.066406 35.308594 40.703125 35.460938 C 40.339844 35.613281 39.992188 35.796875 39.664062 36.015625 C 39.339844 36.234375 39.035156 36.484375 38.757812 36.761719 C 38.480469 37.039062 38.230469 37.34375 38.011719 37.671875 C 37.792969 37.996094 37.609375 38.34375 37.457031 38.707031 C 37.304688 39.070312 37.191406 39.445312 37.113281 39.832031 C 37.035156 40.214844 36.996094 40.605469 36.996094 41 L 36.996094 45 C 36.996094 45.394531 37.035156 45.785156 37.113281 46.167969 C 37.191406 46.554688 37.304688 46.929688 37.457031 47.292969 C 37.609375 47.65625 37.792969 48.003906 38.011719 48.328125 C 38.230469 48.65625 38.480469 48.960938 38.757812 49.238281 C 39.035156 49.515625 39.339844 49.765625 39.664062 49.984375 C 39.992188 50.203125 40.339844 50.386719 40.703125 50.539062 C 41.066406 50.691406 41.441406 50.804688 41.824219 50.882812 C 42.210938 50.960938 42.601562 51 42.996094 51 L 46.996094 51 C 47.261719 51 47.515625 51.050781 47.761719 51.152344 C 48.003906 51.253906 48.222656 51.398438 48.410156 51.585938 C 48.597656 51.773438 48.742188 51.988281 48.84375 52.234375 C 48.945312 52.480469 48.996094 52.734375 48.996094 53 C 48.996094 53.265625 48.945312 53.519531 48.84375 53.765625 C 48.742188 54.011719 48.597656 54.226562 48.410156 54.414062 C 48.222656 54.601562 48.003906 54.746094 47.761719 54.847656 C 47.515625 54.949219 47.261719 55 46.996094 55 L 42.996094 55 C 42.339844 55 41.6875 54.9375 41.042969 54.808594 C 40.398438 54.679688 39.773438 54.488281 39.167969 54.238281 C 38.5625 53.988281 37.984375 53.679688 37.4375 53.316406 C 36.894531 52.949219 36.386719 52.535156 35.921875 52.070312 C 35.460938 51.605469 35.046875 51.101562 34.679688 50.554688 C 34.316406 50.007812 34.007812 49.433594 33.757812 48.828125 C 33.503906 48.21875 33.316406 47.59375 33.1875 46.949219 C 33.058594 46.308594 32.996094 45.65625 32.996094 45 Z M 114.996094 131 L 26.996094 131 L 26.996094 63 L 114.996094 63 Z M 61.996094 45 L 59.996094 45 C 59.535156 45 59.078125 44.957031 58.628906 44.867188 C 58.179688 44.777344 57.742188 44.644531 57.316406 44.46875 C 56.890625 44.292969 56.488281 44.074219 56.105469 43.820312 C 55.722656 43.566406 55.371094 43.273438 55.046875 42.949219 C 54.71875 42.625 54.429688 42.269531 54.175781 41.890625 C 53.917969 41.507812 53.703125 41.101562 53.527344 40.679688 C 53.351562 40.253906 53.21875 39.816406 53.128906 39.367188 C 53.039062 38.914062 52.996094 38.460938 52.996094 38 C 52.996094 37.539062 53.039062 37.085938 53.128906 36.632812 C 53.21875 36.183594 53.351562 35.746094 53.527344 35.320312 C 53.703125 34.898438 53.917969 34.492188 54.175781 34.109375 C 54.429688 33.730469 54.71875 33.375 55.046875 33.050781 C 55.371094 32.726562 55.722656 32.433594 56.105469 32.179688 C 56.488281 31.925781 56.890625 31.707031 57.316406 31.53125 C 57.742188 31.355469 58.179688 31.222656 58.628906 31.132812 C 59.078125 31.042969 59.535156 31 59.996094 31 L 62.996094 31 C 63.386719 31 63.777344 31.039062 64.164062 31.117188 C 64.550781 31.195312 64.925781 31.308594 65.289062 31.460938 C 65.652344 31.613281 65.996094 31.796875 66.324219 32.015625 C 66.652344 32.234375 66.953125 32.484375 67.234375 32.761719 C 67.511719 33.039062 67.757812 33.34375 67.976562 33.671875 C 68.199219 33.996094 68.382812 34.34375 68.535156 34.707031 C 68.683594 35.070312 68.800781 35.445312 68.875 35.832031 C 68.953125 36.214844 68.992188 36.605469 68.996094 37 C 68.996094 37.265625 68.945312 37.519531 68.84375 37.765625 C 68.742188 38.011719 68.597656 38.226562 68.410156 38.414062 C 68.222656 38.601562 68.003906 38.746094 67.761719 38.847656 C 67.515625 38.949219 67.261719 39 66.996094 39 C 66.730469 39 66.472656 38.949219 66.230469 38.847656 C 65.984375 38.746094 65.769531 38.601562 65.582031 38.414062 C 65.394531 38.226562 65.25 38.011719 65.148438 37.765625 C 65.046875 37.519531 64.996094 37.265625 64.996094 37 C 64.996094 36.734375 64.945312 36.480469 64.84375 36.234375 C 64.742188 35.988281 64.597656 35.773438 64.410156 35.585938 C 64.222656 35.398438 64.003906 35.253906 63.761719 35.152344 C 63.515625 35.050781 63.261719 35 62.996094 35 L 59.996094 35 C 59.597656 35 59.214844 35.074219 58.847656 35.226562 C 58.480469 35.378906 58.15625 35.597656 57.875 35.878906 C 57.59375 36.160156 57.375 36.484375 57.222656 36.851562 C 57.070312 37.21875 56.996094 37.601562 56.996094 38 C 56.996094 38.398438 57.070312 38.78125 57.222656 39.148438 C 57.375 39.515625 57.59375 39.839844 57.875 40.121094 C 58.15625 40.402344 58.480469 40.621094 58.847656 40.773438 C 59.214844 40.925781 59.597656 41 59.996094 41 L 61.996094 41 C 62.453125 41 62.910156 41.042969 63.359375 41.132812 C 63.8125 41.222656 64.25 41.355469 64.671875 41.53125 C 65.097656 41.707031 65.5 41.925781 65.882812 42.179688 C 66.265625 42.433594 66.621094 42.726562 66.945312 43.050781 C 67.269531 43.375 67.558594 43.730469 67.816406 44.109375 C 68.070312 44.492188 68.285156 44.898438 68.460938 45.320312 C 68.636719 45.746094 68.769531 46.183594 68.859375 46.632812 C 68.949219 47.085938 68.996094 47.539062 68.996094 48 C 68.996094 48.460938 68.949219 48.914062 68.859375 49.367188 C 68.769531 49.816406 68.636719 50.253906 68.460938 50.679688 C 68.285156 51.101562 68.070312 51.507812 67.816406 51.890625 C 67.558594 52.269531 67.269531 52.625 66.945312 52.949219 C 66.621094 53.273438 66.265625 53.566406 65.882812 53.820312 C 65.5 54.074219 65.097656 54.292969 64.671875 54.46875 C 64.25 54.644531 63.8125 54.777344 63.359375 54.867188 C 62.910156 54.957031 62.453125 55 61.996094 55 L 58.996094 55 C 58.601562 55 58.210938 54.960938 57.824219 54.882812 C 57.441406 54.804688 57.066406 54.691406 56.703125 54.539062 C 56.339844 54.386719 55.992188 54.203125 55.664062 53.984375 C 55.339844 53.765625 55.035156 53.515625 54.757812 53.238281 C 54.480469 52.960938 54.230469 52.65625 54.011719 52.328125 C 53.792969 52.003906 53.609375 51.65625 53.457031 51.292969 C 53.304688 50.929688 53.191406 50.554688 53.113281 50.167969 C 53.035156 49.785156 52.996094 49.394531 52.996094 49 C 52.996094 48.734375 53.046875 48.480469 53.148438 48.234375 C 53.25 47.988281 53.394531 47.773438 53.582031 47.585938 C 53.769531 47.398438 53.984375 47.253906 54.230469 47.152344 C 54.472656 47.050781 54.730469 47 54.996094 47 C 55.261719 47 55.515625 47.050781 55.761719 47.152344 C 56.003906 47.253906 56.222656 47.398438 56.410156 47.585938 C 56.597656 47.773438 56.742188 47.988281 56.84375 48.234375 C 56.945312 48.480469 56.996094 48.734375 56.996094 49 C 56.996094 49.265625 57.046875 49.519531 57.148438 49.765625 C 57.25 50.011719 57.394531 50.226562 57.582031 50.414062 C 57.769531 50.601562 57.984375 50.746094 58.230469 50.847656 C 58.472656 50.949219 58.730469 51 58.996094 51 L 61.996094 51 C 62.394531 51 62.773438 50.925781 63.144531 50.773438 C 63.511719 50.621094 63.835938 50.402344 64.117188 50.121094 C 64.398438 49.839844 64.613281 49.515625 64.765625 49.148438 C 64.917969 48.78125 64.996094 48.398438 64.996094 48 C 64.996094 47.601562 64.917969 47.21875 64.765625 46.851562 C 64.613281 46.484375 64.398438 46.160156 64.117188 45.878906 C 63.835938 45.597656 63.511719 45.378906 63.144531 45.226562 C 62.777344 45.074219 62.394531 45 61.996094 45 Z M 81.996094 45 L 79.996094 45 C 79.535156 45 79.078125 44.957031 78.628906 44.867188 C 78.179688 44.777344 77.742188 44.644531 77.316406 44.46875 C 76.890625 44.292969 76.488281 44.074219 76.105469 43.820312 C 75.722656 43.566406 75.371094 43.273438 75.046875 42.949219 C 74.71875 42.625 74.429688 42.269531 74.175781 41.890625 C 73.917969 41.507812 73.703125 41.101562 73.527344 40.679688 C 73.351562 40.253906 73.21875 39.816406 73.128906 39.367188 C 73.039062 38.914062 72.996094 38.460938 72.996094 38 C 72.996094 37.539062 73.039062 37.085938 73.128906 36.632812 C 73.21875 36.183594 73.351562 35.746094 73.527344 35.320312 C 73.703125 34.898438 73.917969 34.492188 74.175781 34.109375 C 74.429688 33.730469 74.71875 33.375 75.046875 33.050781 C 75.371094 32.726562 75.722656 32.433594 76.105469 32.179688 C 76.488281 31.925781 76.890625 31.707031 77.316406 31.53125 C 77.742188 31.355469 78.179688 31.222656 78.628906 31.132812 C 79.078125 31.042969 79.535156 31 79.996094 31 L 82.996094 31 C 83.386719 31 83.777344 31.039062 84.164062 31.117188 C 84.550781 31.195312 84.925781 31.308594 85.289062 31.460938 C 85.652344 31.613281 85.996094 31.796875 86.324219 32.015625 C 86.652344 32.234375 86.953125 32.484375 87.234375 32.761719 C 87.511719 33.039062 87.757812 33.34375 87.976562 33.671875 C 88.199219 33.996094 88.382812 34.34375 88.535156 34.707031 C 88.683594 35.070312 88.800781 35.445312 88.875 35.832031 C 88.953125 36.214844 88.992188 36.605469 88.996094 37 C 88.996094 37.265625 88.945312 37.519531 88.84375 37.765625 C 88.742188 38.011719 88.597656 38.226562 88.410156 38.414062 C 88.222656 38.601562 88.003906 38.746094 87.761719 38.847656 C 87.515625 38.949219 87.261719 39 86.996094 39 C 86.730469 39 86.472656 38.949219 86.230469 38.847656 C 85.984375 38.746094 85.769531 38.601562 85.582031 38.414062 C 85.394531 38.226562 85.25 38.011719 85.148438 37.765625 C 85.046875 37.519531 84.996094 37.265625 84.996094 37 C 84.996094 36.734375 84.945312 36.480469 84.84375 36.234375 C 84.742188 35.988281 84.597656 35.773438 84.410156 35.585938 C 84.222656 35.398438 84.003906 35.253906 83.761719 35.152344 C 83.515625 35.050781 83.261719 35 82.996094 35 L 79.996094 35 C 79.597656 35 79.214844 35.074219 78.847656 35.226562 C 78.480469 35.378906 78.15625 35.597656 77.875 35.878906 C 77.59375 36.160156 77.375 36.484375 77.222656 36.851562 C 77.070312 37.21875 76.996094 37.601562 76.996094 38 C 76.996094 38.398438 77.070312 38.78125 77.222656 39.148438 C 77.375 39.515625 77.59375 39.839844 77.875 40.121094 C 78.15625 40.402344 78.480469 40.621094 78.847656 40.773438 C 79.214844 40.925781 79.597656 41 79.996094 41 L 81.996094 41 C 82.453125 41 82.910156 41.042969 83.359375 41.132812 C 83.8125 41.222656 84.25 41.355469 84.671875 41.53125 C 85.097656 41.707031 85.5 41.925781 85.882812 42.179688 C 86.265625 42.433594 86.621094 42.726562 86.945312 43.050781 C 87.269531 43.375 87.558594 43.730469 87.816406 44.109375 C 88.070312 44.492188 88.285156 44.898438 88.460938 45.320312 C 88.636719 45.746094 88.769531 46.183594 88.859375 46.632812 C 88.949219 47.085938 88.996094 47.539062 88.996094 48 C 88.996094 48.460938 88.949219 48.914062 88.859375 49.367188 C 88.769531 49.816406 88.636719 50.253906 88.460938 50.679688 C 88.285156 51.101562 88.070312 51.507812 87.816406 51.890625 C 87.558594 52.269531 87.269531 52.625 86.945312 52.949219 C 86.621094 53.273438 86.265625 53.566406 85.882812 53.820312 C 85.5 54.074219 85.097656 54.292969 84.671875 54.46875 C 84.25 54.644531 83.8125 54.777344 83.359375 54.867188 C 82.910156 54.957031 82.453125 55 81.996094 55 L 78.996094 55 C 78.601562 55 78.210938 54.960938 77.824219 54.882812 C 77.441406 54.804688 77.066406 54.691406 76.703125 54.539062 C 76.339844 54.386719 75.992188 54.203125 75.664062 53.984375 C 75.339844 53.765625 75.035156 53.515625 74.757812 53.238281 C 74.480469 52.960938 74.230469 52.65625 74.011719 52.328125 C 73.792969 52.003906 73.609375 51.65625 73.457031 51.292969 C 73.304688 50.929688 73.191406 50.554688 73.113281 50.167969 C 73.035156 49.785156 72.996094 49.394531 72.996094 49 C 72.996094 48.734375 73.046875 48.480469 73.148438 48.234375 C 73.25 47.988281 73.394531 47.773438 73.582031 47.585938 C 73.769531 47.398438 73.984375 47.253906 74.230469 47.152344 C 74.472656 47.050781 74.730469 47 74.996094 47 C 75.261719 47 75.515625 47.050781 75.761719 47.152344 C 76.003906 47.253906 76.222656 47.398438 76.410156 47.585938 C 76.597656 47.773438 76.742188 47.988281 76.84375 48.234375 C 76.945312 48.480469 76.996094 48.734375 76.996094 49 C 76.996094 49.265625 77.046875 49.519531 77.148438 49.765625 C 77.25 50.011719 77.394531 50.226562 77.582031 50.414062 C 77.769531 50.601562 77.984375 50.746094 78.230469 50.847656 C 78.472656 50.949219 78.730469 51 78.996094 51 L 81.996094 51 C 82.394531 51 82.777344 50.925781 83.144531 50.773438 C 83.511719 50.621094 83.835938 50.402344 84.117188 50.121094 C 84.398438 49.839844 84.613281 49.515625 84.765625 49.148438 C 84.917969 48.78125 84.996094 48.398438 84.996094 48 C 84.996094 47.601562 84.917969 47.21875 84.765625 46.851562 C 84.613281 46.484375 84.398438 46.160156 84.117188 45.878906 C 83.835938 45.597656 83.511719 45.378906 83.144531 45.226562 C 82.777344 45.074219 82.394531 45 81.996094 45 Z M 98.996094 41 L 98.996094 29.820312 L 112.175781 43 L 100.996094 43 C 100.730469 43 100.472656 42.949219 100.230469 42.847656 C 99.984375 42.746094 99.769531 42.601562 99.582031 42.414062 C 99.394531 42.226562 99.25 42.011719 99.148438 41.765625 C 99.046875 41.519531 98.996094 41.265625 98.996094 41 Z M 122.996094 123 L 118.996094 123 L 118.996094 45 C 118.992188 44.449219 118.796875 43.976562 118.414062 43.578125 L 98.414062 23.578125 C 98.019531 23.199219 97.546875 23.003906 96.996094 23 L 34.996094 23 L 34.996094 19 L 122.996094 19 Z M 122.996094 123 "/></g></g></svg>