<svg xmlns="http://www.w3.org/2000/svg" xmlns:xlink="http://www.w3.org/1999/xlink" width="200" zoomAndPan="magnify" viewBox="0 0 150 149.999998" height="200" preserveAspectRatio="xMidYMid meet" version="1.2"><g id="64d0ead02a"><path style=" stroke:none;fill-rule:nonzero;fill:#682aeb;fill-opacity:1;" d="M 100.71875 99.605469 C 102.78125 104.371094 102.21875 109.339844 102.25 114.25 C 102.28125 119.144531 102.28125 124.039062 102.246094 128.929688 C 102.21875 132.570312 99.289062 134.996094 95.910156 134.253906 C 93.554688 133.738281 91.898438 131.6875 91.890625 129.152344 C 91.875 122.238281 91.851562 115.320312 91.921875 108.40625 C 91.957031 104.957031 90.941406 101.96875 88.613281 99.433594 C 87.117188 97.804688 86.570312 95.945312 87.371094 93.847656 C 88.152344 91.816406 89.738281 90.875 91.878906 90.476562 C 95.800781 89.75 99.777344 89.121094 103.5625 87.90625 C 112.296875 85.105469 117.410156 78.867188 119.277344 69.972656 C 120.421875 64.523438 120.953125 59.015625 119.558594 53.511719 C 118.65625 49.960938 116.972656 46.792969 114.472656 44.121094 C 112.644531 42.167969 112.207031 40.097656 113.113281 37.5625 C 114.460938 33.789062 114.597656 29.910156 113.605469 25.765625 C 112.242188 26.230469 110.894531 26.523438 109.699219 27.128906 C 106.679688 28.65625 103.65625 30.214844 100.777344 31.984375 C 98.84375 33.171875 97 33.523438 94.800781 32.957031 C 84.21875 30.21875 73.628906 30.222656 63.027344 32.96875 C 60.882812 33.527344 59.027344 33.253906 57.175781 32 C 53.554688 29.546875 49.746094 27.425781 45.519531 26.167969 C 45.140625 26.058594 44.75 25.984375 44.277344 25.871094 C 43.492188 28.761719 43.429688 31.597656 43.960938 34.441406 C 44.199219 35.703125 44.582031 36.945312 44.972656 38.175781 C 45.601562 40.15625 45.335938 41.96875 43.925781 43.492188 C 39.3125 48.476562 37.265625 54.355469 37.535156 61.113281 C 37.71875 65.78125 38.285156 70.375 40.027344 74.753906 C 42.851562 81.851562 48.230469 86.15625 55.351562 88.324219 C 58.699219 89.339844 62.179688 89.957031 65.632812 90.546875 C 69.140625 91.148438 71.214844 93.304688 70.75 96.480469 C 70.601562 97.496094 70.078125 98.597656 69.398438 99.367188 C 66.9375 102.15625 65.886719 105.328125 65.945312 109.035156 C 66.046875 115.707031 65.996094 122.382812 65.96875 129.054688 C 65.957031 132.117188 63.761719 134.378906 60.867188 134.417969 C 57.957031 134.457031 55.703125 132.144531 55.671875 129.027344 C 55.644531 126.121094 55.667969 123.214844 55.667969 120.460938 C 53.023438 120.460938 50.484375 120.597656 47.964844 120.433594 C 41.953125 120.042969 36.949219 117.421875 32.867188 113.070312 C 31.019531 111.097656 29.359375 108.945312 27.632812 106.859375 C 26.210938 105.132812 24.730469 103.605469 22.476562 102.828125 C 19.976562 101.960938 18.835938 98.992188 19.695312 96.484375 C 20.582031 93.910156 23.253906 92.492188 25.90625 93.171875 C 29.335938 94.050781 32.007812 96.082031 34.269531 98.699219 C 35.910156 100.59375 37.484375 102.546875 39.035156 104.515625 C 43.371094 110.03125 49.03125 111.179688 55.519531 109.625 C 55.640625 107.898438 55.65625 106.199219 55.90625 104.535156 C 56.152344 102.90625 56.636719 101.316406 57.023438 99.671875 C 55.175781 99.109375 53.234375 98.585938 51.34375 97.929688 C 37.507812 93.113281 29.992188 83.132812 27.855469 68.878906 C 27.011719 63.261719 26.726562 57.617188 28.023438 52 C 29.054688 47.527344 30.902344 43.433594 33.632812 39.75 C 34.101562 39.117188 34.269531 38.554688 34.089844 37.765625 C 32.632812 31.347656 33.164062 25.082031 35.613281 18.976562 C 36.628906 16.441406 38.308594 15.425781 41.019531 15.296875 C 47.410156 15 52.992188 17.453125 58.25 20.601562 C 60.765625 22.113281 62.992188 22.386719 65.800781 21.828125 C 75.394531 19.921875 85.015625 20.199219 94.574219 22.253906 C 95.675781 22.492188 96.523438 22.382812 97.5 21.785156 C 102.238281 18.882812 107.175781 16.382812 112.738281 15.5 C 114.4375 15.230469 116.214844 15.230469 117.933594 15.386719 C 119.980469 15.570312 121.398438 16.8125 122.179688 18.734375 C 124.699219 24.945312 125.265625 31.316406 123.824219 37.878906 C 123.710938 38.382812 123.835938 39.105469 124.136719 39.515625 C 129.195312 46.449219 131.167969 54.222656 130.648438 62.71875 C 130.304688 68.355469 129.4375 73.882812 127.226562 79.128906 C 123.046875 89.042969 115.46875 95.105469 105.382812 98.289062 C 103.890625 98.761719 102.367188 99.140625 100.71875 99.605469 Z M 100.71875 99.605469 "/></g></svg>