<svg xmlns="http://www.w3.org/2000/svg" xmlns:xlink="http://www.w3.org/1999/xlink" width="200" zoomAndPan="magnify" viewBox="0 0 150 149.999998" height="200" preserveAspectRatio="xMidYMid meet" version="1.2"><g id="f65bc00987"><path style=" stroke:none;fill-rule:nonzero;fill:#ffc0cb;fill-opacity:1;" d="M 119.429688 29.015625 C 131.53125 42.046875 132.636719 108.285156 109.667969 120.785156 C 86.699219 133.289062 21.808594 133.820312 21.234375 96.847656 C 20.65625 59.875 16.925781 27.953125 51.382812 25.027344 C 85.835938 22.097656 107.085938 15.714844 119.429688 29.015625 Z M 119.429688 29.015625 "/><path style=" stroke:none;fill-rule:nonzero;fill:#fb8da0;fill-opacity:1;" d="M 124.136719 126.675781 L 26.832031 126.675781 C 25.664062 126.675781 24.714844 125.726562 24.714844 124.558594 L 24.714844 27.253906 C 24.714844 26.085938 25.664062 25.136719 26.832031 25.136719 L 124.136719 25.136719 C 125.304688 25.136719 126.253906 26.085938 126.253906 27.253906 L 126.253906 124.558594 C 126.253906 125.726562 125.304688 126.675781 124.136719 126.675781 Z M 28.945312 122.445312 L 122.023438 122.445312 L 122.023438 29.367188 L 28.945312 29.367188 Z M 66.121094 119.179688 C 62.640625 119.179688 59.417969 118.34375 56.691406 116.714844 C 54.132812 115.175781 51.992188 112.742188 50.507812 109.671875 C 50.03125 108.695312 50.375 107.519531 51.300781 106.945312 L 58.699219 102.386719 C 59.035156 102.183594 59.417969 102.074219 59.808594 102.074219 C 61.078125 102.074219 61.636719 103.035156 61.972656 103.609375 C 62.972656 105.289062 63.53125 106.003906 64.613281 106.546875 C 64.632812 106.496094 65.203125 106.683594 65.914062 106.683594 C 66.730469 106.683594 67.703125 106.480469 68.132812 105.589844 C 68.566406 104.667969 68.527344 101.082031 68.503906 98.464844 L 68.484375 95.511719 L 68.519531 71.976562 C 68.519531 70.808594 69.46875 69.859375 70.636719 69.859375 L 79.75 69.859375 C 80.335938 69.859375 80.894531 70.105469 81.296875 70.535156 C 81.699219 70.96875 81.902344 71.542969 81.855469 72.128906 L 81.855469 80.589844 C 81.867188 86.160156 81.878906 91.714844 81.847656 97.265625 L 81.875 99.449219 C 81.945312 103.914062 82.011719 108.128906 79.976562 111.835938 C 78.429688 115 75.359375 117.421875 71.363281 118.574219 C 69.574219 118.980469 67.820312 119.179688 66.121094 119.179688 Z M 55.246094 109.488281 C 56.246094 111.03125 57.476562 112.257812 58.863281 113.089844 C 61.929688 114.917969 66.101562 115.429688 70.316406 114.480469 C 72.191406 113.9375 74.863281 112.664062 76.222656 109.894531 C 77.761719 107.078125 77.707031 103.578125 77.636719 99.523438 L 77.613281 97.265625 C 77.648438 91.707031 77.632812 86.160156 77.621094 80.601562 L 77.613281 74.09375 L 72.738281 74.09375 L 72.703125 95.515625 L 72.726562 98.425781 C 72.777344 103.363281 72.761719 106.007812 71.859375 107.570312 C 70.253906 110.929688 66.261719 111.476562 63.046875 110.476562 C 61.0625 109.515625 59.984375 108.34375 59.136719 107.089844 Z M 59.804688 104.414062 L 58.164062 105.488281 Z M 59.902344 104.347656 L 59.933594 104.328125 Z M 101.097656 118.75 C 95.402344 118.75 89.726562 116.769531 86.320312 113.332031 L 85.421875 112.3125 C 84.347656 111.101562 83.417969 110.058594 82.601562 108.191406 C 82.164062 107.199219 82.550781 106.046875 83.484375 105.507812 L 90.90625 101.25 C 91.882812 100.695312 93.109375 100.984375 93.726562 101.917969 C 95.617188 104.78125 97.027344 105.875 99.535156 106.429688 C 101.671875 106.683594 103.75 106.273438 104.605469 105.347656 C 104.765625 105.171875 105.253906 104.644531 104.988281 103.273438 C 104.601562 102.035156 101.839844 100.871094 99.171875 99.75 C 96.582031 98.664062 93.652344 97.429688 91.121094 95.535156 C 87.992188 93.429688 85.832031 89.753906 85.296875 85.515625 C 84.761719 81.304688 85.925781 77.226562 88.5 74.316406 C 90.257812 72.140625 93.199219 70.394531 96.515625 69.585938 L 99.609375 69.183594 C 105.652344 69.03125 109.839844 70.585938 112.941406 74.066406 C 113.785156 74.886719 114.453125 75.839844 115.519531 77.496094 C 115.824219 77.96875 115.925781 78.554688 115.804688 79.105469 C 115.679688 79.65625 115.339844 80.136719 114.855469 80.433594 C 111.949219 82.242188 111.949219 82.242188 107.777344 84.96875 C 107.261719 85.300781 106.632812 85.398438 106.042969 85.230469 C 105.457031 85.0625 104.964844 84.652344 104.707031 84.097656 C 104.101562 82.808594 103.152344 81.910156 102.042969 81.566406 C 101.109375 81.289062 99.996094 81.371094 99.292969 81.777344 C 98.777344 82.074219 98.640625 82.445312 98.582031 82.699219 C 98.488281 83.035156 98.40625 83.289062 98.75 84.515625 C 99.101562 85.269531 101.101562 86.128906 103.03125 86.960938 C 103.652344 87.226562 104.277344 87.5 104.894531 87.785156 C 113.179688 91.144531 117.335938 95.242188 118.257812 101.015625 C 118.304688 101.289062 118.292969 101.566406 118.230469 101.824219 C 118.597656 104.957031 118.074219 107.242188 117.703125 108.390625 C 116.304688 113.179688 112.402344 116.621094 106.730469 118.0625 C 104.90625 118.53125 102.996094 118.75 101.097656 118.75 Z M 87.417969 108.128906 C 87.746094 108.5625 88.121094 108.980469 88.578125 109.503906 L 89.425781 110.46875 C 92.824219 113.894531 99.855469 115.449219 105.683594 113.96875 C 108.09375 113.359375 112.335938 111.664062 113.644531 107.179688 C 113.910156 106.367188 114.402344 104.359375 113.890625 101.453125 C 113.851562 101.21875 113.847656 100.988281 113.886719 100.765625 C 113.1875 98.007812 111.046875 94.855469 103.195312 91.667969 C 102.519531 91.355469 101.929688 91.101562 101.351562 90.851562 C 98.667969 89.699219 95.890625 88.5 94.769531 85.933594 C 94.257812 84.164062 94.082031 82.972656 94.492188 81.617188 C 94.824219 80.195312 95.757812 78.9375 97.167969 78.121094 C 98.894531 77.117188 101.167969 76.886719 103.269531 77.523438 C 104.828125 78.003906 106.191406 78.949219 107.253906 80.253906 C 108.953125 79.148438 109.691406 78.667969 110.753906 78.003906 C 110.433594 77.578125 110.167969 77.277344 109.871094 76.984375 C 107.5 74.335938 104.570312 73.277344 99.914062 73.402344 L 97.273438 73.742188 C 95.109375 74.285156 92.949219 75.539062 91.71875 77.050781 C 89.894531 79.117188 89.101562 81.984375 89.484375 84.984375 C 89.863281 87.972656 91.390625 90.628906 93.5625 92.097656 C 95.761719 93.734375 98.328125 94.816406 100.804688 95.859375 C 104.617188 97.460938 108.222656 98.980469 109.089844 102.246094 C 109.097656 102.285156 109.105469 102.324219 109.113281 102.359375 C 109.714844 105.296875 108.679688 107.171875 107.707031 108.226562 C 105.875 110.203125 102.628906 111.070312 98.8125 110.601562 C 95.269531 109.824219 93.136719 108.164062 91.347656 105.875 Z M 87.417969 108.128906 "/></g></svg>