<svg xmlns="http://www.w3.org/2000/svg" xmlns:xlink="http://www.w3.org/1999/xlink" width="200" zoomAndPan="magnify" viewBox="0 0 150 149.999998" height="200" preserveAspectRatio="xMidYMid meet" version="1.2"><g id="8d2f17a556"><path style=" stroke:none;fill-rule:nonzero;fill:#682aeb;fill-opacity:1;" d="M 36.300781 15 L 113.628906 15 C 119.535156 15 124.878906 17.390625 128.742188 21.257812 C 132.609375 25.121094 135 30.464844 135 36.300781 L 135 113.628906 C 135 119.535156 132.609375 124.878906 128.742188 128.742188 C 124.878906 132.609375 119.535156 135 113.628906 135 L 36.300781 135 C 30.464844 135 25.121094 132.609375 21.257812 128.742188 C 17.390625 124.878906 15 119.535156 15 113.628906 L 15 36.300781 C 15 30.464844 17.390625 25.121094 21.257812 21.257812 C 25.121094 17.390625 30.464844 15 36.300781 15 Z M 113.628906 21.257812 L 36.300781 21.257812 C 32.152344 21.257812 28.425781 22.945312 25.683594 25.683594 C 22.945312 28.425781 21.257812 32.152344 21.257812 36.300781 L 21.257812 113.628906 C 21.257812 117.777344 22.945312 121.574219 25.683594 124.316406 C 28.425781 126.984375 32.152344 128.742188 36.300781 128.742188 L 113.628906 128.742188 C 117.777344 128.742188 121.574219 126.984375 124.316406 124.316406 C 126.984375 121.574219 128.742188 117.777344 128.742188 113.628906 L 128.742188 36.300781 C 128.742188 32.152344 126.984375 28.425781 124.316406 25.683594 C 121.574219 22.945312 117.777344 21.257812 113.628906 21.257812 Z M 113.628906 21.257812 "/><path style=" stroke:none;fill-rule:nonzero;fill:#682aeb;fill-opacity:1;" d="M 36.933594 56.617188 L 48.53125 56.617188 C 49.867188 56.617188 51.0625 57.109375 51.90625 57.953125 C 52.820312 58.796875 53.453125 59.992188 53.453125 61.398438 L 53.453125 115.175781 C 53.453125 116.511719 52.820312 117.777344 51.90625 118.621094 C 51.0625 119.464844 49.867188 119.957031 48.53125 119.957031 L 36.933594 119.957031 C 35.597656 119.957031 34.402344 119.464844 33.558594 118.621094 C 32.574219 117.777344 32.011719 116.511719 32.011719 115.175781 L 32.011719 61.398438 C 32.011719 59.992188 32.574219 58.796875 33.558594 57.953125 C 34.402344 57.109375 35.597656 56.617188 36.933594 56.617188 Z M 47.195312 62.875 L 38.269531 62.875 L 38.269531 113.699219 L 47.195312 113.699219 Z M 47.195312 62.875 "/><path style=" stroke:none;fill-rule:nonzero;fill:#682aeb;fill-opacity:1;" d="M 66.246094 56.476562 L 77.847656 56.476562 C 79.183594 56.476562 80.378906 57.039062 81.222656 57.8125 C 82.207031 58.726562 82.769531 59.921875 82.769531 61.257812 L 82.769531 61.679688 C 85.296875 59.992188 88.179688 58.726562 91.132812 58.023438 C 95.210938 57.039062 99.5 56.96875 103.4375 57.882812 C 107.441406 58.867188 111.167969 60.976562 113.769531 64.28125 C 116.371094 67.441406 117.917969 71.730469 117.917969 77.074219 L 117.917969 115.035156 C 117.917969 116.371094 117.355469 117.566406 116.441406 118.480469 C 115.597656 119.253906 114.402344 119.816406 113.066406 119.816406 L 101.398438 119.816406 C 100.132812 119.816406 98.9375 119.253906 98.023438 118.480469 C 97.109375 117.566406 96.546875 116.371094 96.546875 115.035156 L 96.546875 85.015625 C 96.546875 82.207031 94.929688 80.449219 92.890625 79.675781 C 91.976562 79.324219 90.921875 79.183594 89.9375 79.183594 C 88.882812 79.183594 87.828125 79.394531 86.84375 79.746094 C 84.527344 80.589844 82.769531 82.347656 82.769531 85.015625 L 82.769531 115.175781 C 82.769531 116.511719 82.207031 117.777344 81.222656 118.621094 C 80.378906 119.464844 79.183594 119.957031 77.847656 119.957031 L 66.246094 119.957031 C 64.914062 119.957031 63.71875 119.464844 62.875 118.621094 C 61.960938 117.777344 61.328125 116.511719 61.328125 115.175781 L 61.328125 61.257812 C 61.328125 59.921875 61.960938 58.726562 62.875 57.8125 C 63.71875 57.039062 64.914062 56.476562 66.246094 56.476562 Z M 76.511719 62.734375 L 67.582031 62.734375 L 67.582031 113.699219 L 76.511719 113.699219 L 76.511719 85.015625 C 76.511719 79.324219 80.097656 75.527344 84.738281 73.839844 C 86.351562 73.277344 88.109375 72.996094 89.867188 72.925781 C 91.625 72.925781 93.382812 73.207031 95.070312 73.839844 C 99.429688 75.457031 102.804688 79.113281 102.804688 85.015625 L 102.804688 113.558594 L 111.660156 113.558594 L 111.660156 77.074219 C 111.660156 73.277344 110.605469 70.324219 108.917969 68.214844 C 107.160156 66.035156 104.703125 64.632812 101.960938 63.929688 C 99.007812 63.226562 95.773438 63.296875 92.679688 64.070312 C 88.460938 65.121094 84.667969 67.371094 82.207031 70.746094 C 81.644531 71.589844 80.730469 72.082031 79.605469 72.082031 C 77.917969 72.082031 76.511719 70.675781 76.511719 68.988281 Z M 76.511719 62.734375 "/><path style=" stroke:none;fill-rule:nonzero;fill:#682aeb;fill-opacity:1;" d="M 42.699219 29.972656 C 45.859375 29.972656 48.742188 31.308594 50.78125 33.347656 C 52.820312 35.386719 54.085938 38.269531 54.085938 41.363281 C 54.085938 44.527344 52.820312 47.335938 50.78125 49.445312 C 48.742188 51.484375 45.859375 52.75 42.699219 52.75 C 39.605469 52.75 36.722656 51.484375 34.683594 49.445312 C 32.644531 47.335938 31.378906 44.527344 31.378906 41.363281 C 31.378906 38.269531 32.644531 35.386719 34.683594 33.347656 C 36.722656 31.308594 39.605469 29.972656 42.699219 29.972656 Z M 46.351562 37.777344 C 45.4375 36.863281 44.175781 36.300781 42.699219 36.300781 C 41.292969 36.300781 40.027344 36.863281 39.113281 37.777344 C 38.199219 38.691406 37.636719 39.957031 37.636719 41.363281 C 37.636719 42.769531 38.199219 44.105469 39.113281 45.015625 C 40.027344 45.929688 41.292969 46.492188 42.699219 46.492188 C 44.175781 46.492188 45.4375 45.929688 46.351562 45.015625 C 47.265625 44.105469 47.828125 42.769531 47.828125 41.363281 C 47.828125 39.957031 47.265625 38.691406 46.351562 37.777344 Z M 46.351562 37.777344 "/></g></svg>