<svg xmlns="http://www.w3.org/2000/svg" xmlns:xlink="http://www.w3.org/1999/xlink" width="200" zoomAndPan="magnify" viewBox="0 0 150 149.999998" height="200" preserveAspectRatio="xMidYMid meet" version="1.2"><defs><clipPath id="5704b947b3"><path d="M 15 58.453125 L 110 58.453125 L 110 92 L 15 92 Z M 15 58.453125 "/></clipPath></defs><g id="a843f000ca"><path style=" stroke:none;fill-rule:nonzero;fill:#f7acb9;fill-opacity:1;" d="M 124.8125 70.34375 C 124.523438 70.34375 124.242188 70.40625 123.996094 70.546875 L 116.125 75.089844 C 115.617188 75.382812 115.308594 75.9375 115.308594 76.527344 L 115.308594 85.597656 C 115.308594 86.1875 115.617188 86.742188 116.125 87.035156 L 118.179688 88.21875 C 119.179688 88.710938 119.546875 88.703125 120.003906 88.703125 C 121.480469 88.703125 122.324219 87.808594 122.324219 86.246094 L 122.324219 77.296875 C 122.324219 77.171875 122.214844 77.082031 122.089844 77.082031 L 121.105469 77.082031 C 120.980469 77.082031 120.871094 77.171875 120.871094 77.296875 L 120.871094 86.25 C 120.871094 86.941406 120.152344 87.636719 118.984375 87.054688 L 116.847656 85.800781 C 116.773438 85.761719 116.714844 85.683594 116.714844 85.601562 L 116.714844 76.527344 C 116.714844 76.441406 116.769531 76.355469 116.847656 76.3125 L 124.699219 71.785156 C 124.773438 71.742188 124.859375 71.742188 124.933594 71.785156 L 132.785156 76.3125 C 132.859375 76.355469 132.917969 76.441406 132.917969 76.527344 L 132.917969 85.601562 C 132.917969 85.6875 132.875 85.777344 132.800781 85.816406 L 124.933594 90.34375 C 124.863281 90.386719 124.769531 90.386719 124.699219 90.34375 L 122.679688 89.144531 C 122.617188 89.105469 122.535156 89.109375 122.476562 89.144531 C 121.917969 89.457031 121.816406 89.496094 121.292969 89.675781 C 121.164062 89.722656 120.964844 89.792969 121.359375 90.011719 L 124 91.566406 C 124.25 91.710938 124.53125 91.785156 124.816406 91.785156 C 125.109375 91.785156 125.382812 91.714844 125.636719 91.566406 L 133.503906 87.039062 C 134.011719 86.742188 134.324219 86.191406 134.324219 85.601562 L 134.324219 76.53125 C 134.324219 75.941406 134.011719 75.390625 133.503906 75.09375 L 125.636719 70.550781 C 125.390625 70.410156 125.105469 70.351562 124.816406 70.351562 Z M 126.917969 76.828125 C 124.679688 76.828125 123.34375 77.78125 123.34375 79.367188 C 123.34375 81.085938 124.667969 81.558594 126.820312 81.773438 C 129.390625 82.023438 129.59375 82.402344 129.59375 82.910156 C 129.59375 83.789062 128.890625 84.160156 127.238281 84.160156 C 125.15625 84.160156 124.699219 83.644531 124.546875 82.605469 C 124.527344 82.496094 124.441406 82.40625 124.328125 82.40625 L 123.308594 82.40625 C 123.15625 82.410156 123.078125 82.488281 123.074219 82.640625 C 123.074219 83.964844 123.792969 85.53125 127.234375 85.53125 C 129.722656 85.53125 131.160156 84.554688 131.160156 82.839844 C 131.160156 81.144531 130 80.6875 127.585938 80.367188 C 125.148438 80.042969 124.910156 79.886719 124.910156 79.316406 C 124.910156 78.84375 125.109375 78.210938 126.917969 78.210938 C 128.53125 78.210938 129.128906 78.558594 129.371094 79.648438 C 129.394531 79.75 129.484375 79.835938 129.589844 79.835938 L 130.613281 79.835938 C 130.675781 79.835938 130.734375 79.796875 130.777344 79.75 C 130.820312 79.703125 130.851562 79.648438 130.84375 79.582031 C 130.6875 77.707031 129.4375 76.828125 126.917969 76.828125 Z M 126.917969 76.828125 "/><g clip-rule="nonzero" clip-path="url(#5704b947b3)"><path style=" stroke:none;fill-rule:nonzero;fill:#f7acb9;fill-opacity:1;" d="M 78.554688 58.453125 C 78.464844 58.453125 78.382812 58.476562 78.304688 58.519531 C 78.136719 58.617188 78.054688 58.761719 78.054688 58.953125 L 78.054688 71.734375 C 78.054688 71.859375 77.996094 71.972656 77.886719 72.035156 C 77.769531 72.105469 77.652344 72.105469 77.535156 72.035156 L 75.445312 70.832031 C 75.113281 70.640625 74.777344 70.640625 74.445312 70.832031 L 66.109375 75.644531 C 65.796875 75.824219 65.605469 76.171875 65.605469 76.53125 L 65.605469 86.152344 C 65.605469 86.539062 65.773438 86.828125 66.109375 87.019531 L 74.445312 91.832031 C 74.777344 92.027344 75.113281 92.027344 75.445312 91.832031 L 83.785156 87.019531 C 84.117188 86.828125 84.285156 86.539062 84.285156 86.152344 L 84.285156 62.164062 C 84.285156 61.796875 84.085938 61.453125 83.765625 61.277344 L 78.804688 58.503906 C 78.726562 58.460938 78.640625 58.453125 78.554688 58.453125 Z M 24.925781 70.464844 C 24.769531 70.472656 24.617188 70.5 24.476562 70.582031 L 16.140625 75.394531 C 15.804688 75.585938 15.636719 75.875 15.636719 76.261719 L 15.65625 89.175781 C 15.65625 89.355469 15.75 89.523438 15.90625 89.609375 C 16.0625 89.703125 16.253906 89.703125 16.40625 89.609375 L 21.351562 86.769531 C 21.664062 86.585938 21.871094 86.261719 21.871094 85.902344 L 21.871094 79.871094 C 21.871094 79.511719 22.058594 79.179688 22.371094 79.003906 L 24.476562 77.78125 C 24.632812 77.691406 24.796875 77.648438 24.976562 77.648438 C 25.15625 77.648438 25.324219 77.691406 25.480469 77.78125 L 27.582031 79 C 27.894531 79.179688 28.085938 79.511719 28.085938 79.871094 L 28.085938 85.902344 C 28.085938 86.257812 28.292969 86.585938 28.601562 86.769531 L 33.546875 89.609375 C 33.703125 89.703125 33.894531 89.703125 34.046875 89.609375 C 34.203125 89.519531 34.300781 89.355469 34.300781 89.175781 L 34.316406 76.261719 C 34.316406 75.875 34.152344 75.585938 33.816406 75.394531 L 25.476562 70.582031 C 25.335938 70.5 25.1875 70.472656 25.027344 70.464844 Z M 99.835938 70.582031 C 99.65625 70.582031 99.492188 70.625 99.335938 70.714844 L 91 75.527344 C 90.6875 75.707031 90.496094 76.035156 90.496094 76.394531 L 90.496094 86.019531 C 90.496094 86.378906 90.703125 86.707031 91.015625 86.886719 L 99.285156 91.601562 C 99.589844 91.773438 99.964844 91.789062 100.269531 91.617188 L 105.28125 88.828125 C 105.441406 88.738281 105.550781 88.574219 105.550781 88.394531 C 105.550781 88.210938 105.457031 88.046875 105.296875 87.957031 L 96.910156 83.148438 C 96.753906 83.058594 96.644531 82.875 96.644531 82.695312 L 96.644531 79.6875 C 96.644531 79.507812 96.757812 79.34375 96.910156 79.253906 L 99.519531 77.75 C 99.671875 77.660156 99.863281 77.660156 100.019531 77.75 L 102.632812 79.253906 C 102.800781 79.347656 102.882812 79.492188 102.882812 79.6875 L 102.882812 82.058594 C 102.882812 82.253906 102.964844 82.398438 103.132812 82.492188 C 103.289062 82.582031 103.476562 82.582031 103.632812 82.492188 L 108.628906 79.585938 C 108.9375 79.40625 109.128906 79.074219 109.128906 78.71875 L 109.128906 76.394531 C 109.128906 76.007812 108.964844 75.71875 108.628906 75.527344 L 100.34375 70.714844 C 100.1875 70.625 100.019531 70.582031 99.839844 70.582031 Z M 74.910156 77.765625 C 74.957031 77.765625 75.003906 77.777344 75.042969 77.800781 L 77.902344 79.453125 C 77.980469 79.5 78.035156 79.582031 78.035156 79.671875 L 78.035156 82.976562 C 78.035156 83.066406 77.980469 83.152344 77.902344 83.195312 L 75.042969 84.847656 C 74.96875 84.894531 74.871094 84.894531 74.792969 84.847656 L 71.9375 83.195312 C 71.859375 83.152344 71.804688 83.066406 71.804688 82.976562 L 71.804688 79.671875 C 71.804688 79.582031 71.859375 79.5 71.9375 79.453125 L 74.792969 77.800781 C 74.832031 77.777344 74.867188 77.765625 74.910156 77.765625 Z M 74.910156 77.765625 "/></g><path style=" stroke:none;fill-rule:nonzero;fill:#f7acb9;fill-opacity:1;" d="M 49.96875 70.53125 C 49.789062 70.53125 49.621094 70.578125 49.46875 70.664062 L 41.132812 75.460938 C 40.820312 75.640625 40.628906 75.988281 40.628906 76.347656 L 40.628906 85.96875 C 40.628906 86.355469 40.796875 86.644531 41.132812 86.835938 L 49.46875 91.648438 C 49.800781 91.84375 50.136719 91.84375 50.46875 91.648438 L 58.804688 86.835938 C 59.140625 86.644531 59.308594 86.355469 59.308594 85.96875 L 59.308594 76.347656 C 59.308594 75.988281 59.117188 75.640625 58.804688 75.460938 L 50.46875 70.667969 C 50.3125 70.578125 50.148438 70.53125 49.96875 70.53125 Z M 99.820312 79.117188 C 99.789062 79.117188 99.75 79.117188 99.71875 79.136719 L 98.117188 80.070312 C 98.050781 80.109375 98.019531 80.164062 98.015625 80.238281 L 98.015625 82.074219 C 98.015625 82.144531 98.054688 82.207031 98.117188 82.242188 L 99.71875 83.160156 C 99.78125 83.199219 99.84375 83.199219 99.902344 83.160156 L 101.507812 82.242188 C 101.566406 82.207031 101.609375 82.144531 101.609375 82.074219 L 101.609375 80.238281 C 101.609375 80.167969 101.566406 80.105469 101.507812 80.070312 L 99.902344 79.136719 C 99.875 79.117188 99.855469 79.117188 99.820312 79.117188 Z M 99.820312 79.117188 "/></g></svg>