<svg xmlns="http://www.w3.org/2000/svg" xmlns:xlink="http://www.w3.org/1999/xlink" width="200" zoomAndPan="magnify" viewBox="0 0 150 149.999998" height="200" preserveAspectRatio="xMidYMid meet" version="1.2"><defs><clipPath id="96c133cf1d"><path d="M 18.296875 0 L 134.601562 0 L 134.601562 88.683594 L 18.296875 88.683594 Z M 18.296875 0 "/></clipPath><clipPath id="843f03d6b8"><path d="M 18.296875 19 L 134.601562 19 L 134.601562 88.683594 L 18.296875 88.683594 Z M 18.296875 19 "/></clipPath></defs><g id="36fb16c288"><g clip-rule="nonzero" clip-path="url(#96c133cf1d)"><path style=" stroke:none;fill-rule:nonzero;fill:#f7acb9;fill-opacity:1;" d="M 134.601562 17.292969 L 134.601562 78.75 C 134.601562 84.050781 130.296875 88.332031 125.019531 88.332031 L 27.878906 88.332031 C 22.597656 88.355469 18.296875 84.050781 18.296875 78.769531 L 18.296875 17.292969 C 18.296875 15.292969 18.296875 9.152344 18.296875 7.429688 L 18.296875 6.871094 C 18.296875 3.101562 21.367188 0.03125 25.15625 0.03125 L 56.421875 0.03125 C 60.210938 0.03125 63.28125 3.101562 63.28125 6.894531 L 63.28125 7.453125 C 63.28125 7.546875 63.28125 7.640625 63.28125 7.730469 L 125.019531 7.730469 C 130.296875 7.707031 134.601562 12.011719 134.601562 17.292969 Z M 134.601562 17.292969 "/></g><g clip-rule="nonzero" clip-path="url(#843f03d6b8)"><path style=" stroke:none;fill-rule:nonzero;fill:#ffc0cb;fill-opacity:1;" d="M 18.296875 84.285156 L 18.296875 23.851562 C 18.296875 21.59375 20.109375 19.78125 22.367188 19.78125 L 130.53125 19.78125 C 132.789062 19.78125 134.601562 21.59375 134.601562 23.851562 L 134.601562 84.285156 C 134.601562 86.539062 132.789062 88.355469 130.53125 88.355469 L 22.367188 88.355469 C 20.109375 88.355469 18.296875 86.539062 18.296875 84.285156 Z M 18.296875 84.285156 "/></g><g style="fill:#2d2a6f;fill-opacity:1;"><g transform="translate(27.612694, 120.118617)"><path style="stroke:none" d="M 5.890625 0 L 1.65625 0 L 1.65625 -13.71875 L 6.078125 -13.71875 C 7.410156 -13.71875 8.550781 -13.441406 9.5 -12.890625 C 10.445312 -12.347656 11.171875 -11.566406 11.671875 -10.546875 C 12.179688 -9.523438 12.4375 -8.304688 12.4375 -6.890625 C 12.4375 -5.453125 12.179688 -4.21875 11.671875 -3.1875 C 11.160156 -2.164062 10.414062 -1.378906 9.4375 -0.828125 C 8.46875 -0.273438 7.285156 0 5.890625 0 Z M 3.328125 -1.46875 L 5.78125 -1.46875 C 7.488281 -1.46875 8.753906 -1.953125 9.578125 -2.921875 C 10.410156 -3.890625 10.828125 -5.210938 10.828125 -6.890625 C 10.828125 -8.546875 10.421875 -9.851562 9.609375 -10.8125 C 8.796875 -11.769531 7.582031 -12.25 5.96875 -12.25 L 3.328125 -12.25 Z M 3.328125 -1.46875 "/></g></g><g style="fill:#2d2a6f;fill-opacity:1;"><g transform="translate(41.156799, 120.118617)"><path style="stroke:none" d="M 4.46875 0.234375 C 3.820312 0.234375 3.234375 0.113281 2.703125 -0.125 C 2.171875 -0.375 1.75 -0.734375 1.4375 -1.203125 C 1.125 -1.679688 0.96875 -2.253906 0.96875 -2.921875 C 0.96875 -3.503906 1.082031 -3.976562 1.3125 -4.34375 C 1.539062 -4.71875 1.847656 -5.007812 2.234375 -5.21875 C 2.628906 -5.425781 3.0625 -5.582031 3.53125 -5.6875 C 4 -5.800781 4.472656 -5.890625 4.953125 -5.953125 C 5.578125 -6.023438 6.082031 -6.082031 6.46875 -6.125 C 6.863281 -6.164062 7.148438 -6.238281 7.328125 -6.34375 C 7.515625 -6.445312 7.609375 -6.628906 7.609375 -6.890625 L 7.609375 -6.9375 C 7.609375 -7.59375 7.425781 -8.101562 7.0625 -8.46875 C 6.707031 -8.84375 6.164062 -9.03125 5.4375 -9.03125 C 4.6875 -9.03125 4.09375 -8.863281 3.65625 -8.53125 C 3.226562 -8.195312 2.929688 -7.84375 2.765625 -7.46875 L 1.265625 -8.015625 C 1.523438 -8.640625 1.878906 -9.125 2.328125 -9.46875 C 2.773438 -9.820312 3.265625 -10.066406 3.796875 -10.203125 C 4.335938 -10.347656 4.867188 -10.421875 5.390625 -10.421875 C 5.710938 -10.421875 6.085938 -10.378906 6.515625 -10.296875 C 6.953125 -10.222656 7.375 -10.066406 7.78125 -9.828125 C 8.1875 -9.585938 8.519531 -9.222656 8.78125 -8.734375 C 9.050781 -8.242188 9.1875 -7.59375 9.1875 -6.78125 L 9.1875 0 L 7.609375 0 L 7.609375 -1.390625 L 7.53125 -1.390625 C 7.414062 -1.171875 7.234375 -0.929688 6.984375 -0.671875 C 6.734375 -0.421875 6.398438 -0.207031 5.984375 -0.03125 C 5.578125 0.144531 5.070312 0.234375 4.46875 0.234375 Z M 4.71875 -1.171875 C 5.34375 -1.171875 5.867188 -1.296875 6.296875 -1.546875 C 6.722656 -1.796875 7.046875 -2.113281 7.265625 -2.5 C 7.492188 -2.882812 7.609375 -3.289062 7.609375 -3.71875 L 7.609375 -5.171875 C 7.535156 -5.085938 7.382812 -5.015625 7.15625 -4.953125 C 6.9375 -4.890625 6.679688 -4.832031 6.390625 -4.78125 C 6.097656 -4.738281 5.8125 -4.695312 5.53125 -4.65625 C 5.257812 -4.625 5.039062 -4.597656 4.875 -4.578125 C 4.46875 -4.523438 4.082031 -4.4375 3.71875 -4.3125 C 3.363281 -4.195312 3.078125 -4.019531 2.859375 -3.78125 C 2.648438 -3.550781 2.546875 -3.238281 2.546875 -2.84375 C 2.546875 -2.289062 2.75 -1.875 3.15625 -1.59375 C 3.5625 -1.3125 4.082031 -1.171875 4.71875 -1.171875 Z M 4.71875 -1.171875 "/></g></g><g style="fill:#2d2a6f;fill-opacity:1;"><g transform="translate(51.783301, 120.118617)"><path style="stroke:none" d="M 8.734375 -7.984375 L 7.3125 -7.578125 C 7.175781 -7.929688 6.941406 -8.265625 6.609375 -8.578125 C 6.285156 -8.890625 5.78125 -9.046875 5.09375 -9.046875 C 4.457031 -9.046875 3.929688 -8.898438 3.515625 -8.609375 C 3.097656 -8.328125 2.890625 -7.96875 2.890625 -7.53125 C 2.890625 -7.132812 3.03125 -6.820312 3.3125 -6.59375 C 3.601562 -6.363281 4.050781 -6.175781 4.65625 -6.03125 L 6.1875 -5.65625 C 8.007812 -5.207031 8.921875 -4.273438 8.921875 -2.859375 C 8.921875 -2.273438 8.75 -1.75 8.40625 -1.28125 C 8.070312 -0.820312 7.601562 -0.457031 7 -0.1875 C 6.394531 0.0820312 5.695312 0.21875 4.90625 0.21875 C 3.851562 0.21875 2.984375 -0.0078125 2.296875 -0.46875 C 1.609375 -0.925781 1.171875 -1.59375 0.984375 -2.46875 L 2.484375 -2.84375 C 2.765625 -1.726562 3.5625 -1.171875 4.875 -1.171875 C 5.613281 -1.171875 6.195312 -1.328125 6.625 -1.640625 C 7.0625 -1.960938 7.28125 -2.34375 7.28125 -2.78125 C 7.28125 -3.507812 6.773438 -3.992188 5.765625 -4.234375 L 4.046875 -4.640625 C 3.097656 -4.859375 2.40625 -5.203125 1.96875 -5.671875 C 1.53125 -6.140625 1.3125 -6.734375 1.3125 -7.453125 C 1.3125 -8.023438 1.472656 -8.535156 1.796875 -8.984375 C 2.128906 -9.429688 2.578125 -9.78125 3.140625 -10.03125 C 3.710938 -10.289062 4.363281 -10.421875 5.09375 -10.421875 C 6.101562 -10.421875 6.898438 -10.195312 7.484375 -9.75 C 8.066406 -9.300781 8.484375 -8.710938 8.734375 -7.984375 Z M 8.734375 -7.984375 "/></g></g><g style="fill:#2d2a6f;fill-opacity:1;"><g transform="translate(61.633562, 120.118617)"><path style="stroke:none" d="M 3.03125 -6.1875 L 3.03125 0 L 1.453125 0 L 1.453125 -13.71875 L 3.03125 -13.71875 L 3.03125 -8.671875 L 3.15625 -8.671875 C 3.394531 -9.203125 3.753906 -9.625 4.234375 -9.9375 C 4.722656 -10.257812 5.375 -10.421875 6.1875 -10.421875 C 7.238281 -10.421875 8.085938 -10.101562 8.734375 -9.46875 C 9.378906 -8.832031 9.703125 -7.851562 9.703125 -6.53125 L 9.703125 0 L 8.109375 0 L 8.109375 -6.421875 C 8.109375 -7.242188 7.894531 -7.878906 7.46875 -8.328125 C 7.050781 -8.773438 6.472656 -9 5.734375 -9 C 4.953125 -9 4.304688 -8.753906 3.796875 -8.265625 C 3.285156 -7.773438 3.03125 -7.082031 3.03125 -6.1875 Z M 3.03125 -6.1875 "/></g></g><g style="fill:#2d2a6f;fill-opacity:1;"><g transform="translate(72.76864, 120.118617)"><path style="stroke:none" d="M 1.65625 0 L 1.65625 -13.71875 L 3.234375 -13.71875 L 3.234375 -8.65625 L 3.375 -8.65625 C 3.488281 -8.832031 3.648438 -9.054688 3.859375 -9.328125 C 4.066406 -9.609375 4.363281 -9.859375 4.75 -10.078125 C 5.144531 -10.304688 5.675781 -10.421875 6.34375 -10.421875 C 7.207031 -10.421875 7.96875 -10.203125 8.625 -9.765625 C 9.289062 -9.335938 9.8125 -8.722656 10.1875 -7.921875 C 10.5625 -7.128906 10.75 -6.191406 10.75 -5.109375 C 10.75 -4.023438 10.5625 -3.082031 10.1875 -2.28125 C 9.8125 -1.488281 9.296875 -0.875 8.640625 -0.4375 C 7.984375 0 7.226562 0.21875 6.375 0.21875 C 5.71875 0.21875 5.1875 0.109375 4.78125 -0.109375 C 4.382812 -0.335938 4.078125 -0.59375 3.859375 -0.875 C 3.648438 -1.15625 3.488281 -1.390625 3.375 -1.578125 L 3.1875 -1.578125 L 3.1875 0 Z M 3.21875 -5.140625 C 3.21875 -3.972656 3.46875 -3.023438 3.96875 -2.296875 C 4.476562 -1.566406 5.207031 -1.203125 6.15625 -1.203125 C 6.820312 -1.203125 7.375 -1.375 7.8125 -1.71875 C 8.257812 -2.070312 8.59375 -2.546875 8.8125 -3.140625 C 9.039062 -3.742188 9.15625 -4.410156 9.15625 -5.140625 C 9.15625 -5.867188 9.046875 -6.519531 8.828125 -7.09375 C 8.609375 -7.675781 8.273438 -8.140625 7.828125 -8.484375 C 7.390625 -8.828125 6.832031 -9 6.15625 -9 C 5.195312 -9 4.46875 -8.644531 3.96875 -7.9375 C 3.46875 -7.226562 3.21875 -6.296875 3.21875 -5.140625 Z M 3.21875 -5.140625 "/></g></g><g style="fill:#2d2a6f;fill-opacity:1;"><g transform="translate(84.465829, 120.118617)"><path style="stroke:none" d="M 5.625 0.21875 C 4.695312 0.21875 3.882812 0 3.1875 -0.4375 C 2.488281 -0.882812 1.941406 -1.503906 1.546875 -2.296875 C 1.160156 -3.097656 0.96875 -4.03125 0.96875 -5.09375 C 0.96875 -6.164062 1.160156 -7.097656 1.546875 -7.890625 C 1.941406 -8.691406 2.488281 -9.3125 3.1875 -9.75 C 3.882812 -10.195312 4.695312 -10.421875 5.625 -10.421875 C 6.550781 -10.421875 7.363281 -10.195312 8.0625 -9.75 C 8.757812 -9.3125 9.300781 -8.691406 9.6875 -7.890625 C 10.082031 -7.097656 10.28125 -6.164062 10.28125 -5.09375 C 10.28125 -4.03125 10.082031 -3.097656 9.6875 -2.296875 C 9.300781 -1.503906 8.757812 -0.882812 8.0625 -0.4375 C 7.363281 0 6.550781 0.21875 5.625 0.21875 Z M 5.625 -1.203125 C 6.332031 -1.203125 6.910156 -1.382812 7.359375 -1.75 C 7.816406 -2.113281 8.15625 -2.585938 8.375 -3.171875 C 8.59375 -3.765625 8.703125 -4.40625 8.703125 -5.09375 C 8.703125 -5.78125 8.59375 -6.421875 8.375 -7.015625 C 8.15625 -7.609375 7.816406 -8.085938 7.359375 -8.453125 C 6.910156 -8.816406 6.332031 -9 5.625 -9 C 4.914062 -9 4.332031 -8.816406 3.875 -8.453125 C 3.425781 -8.085938 3.09375 -7.609375 2.875 -7.015625 C 2.65625 -6.421875 2.546875 -5.78125 2.546875 -5.09375 C 2.546875 -4.40625 2.65625 -3.765625 2.875 -3.171875 C 3.09375 -2.585938 3.425781 -2.113281 3.875 -1.75 C 4.332031 -1.382812 4.914062 -1.203125 5.625 -1.203125 Z M 5.625 -1.203125 "/></g></g><g style="fill:#2d2a6f;fill-opacity:1;"><g transform="translate(95.707977, 120.118617)"><path style="stroke:none" d="M 4.46875 0.234375 C 3.820312 0.234375 3.234375 0.113281 2.703125 -0.125 C 2.171875 -0.375 1.75 -0.734375 1.4375 -1.203125 C 1.125 -1.679688 0.96875 -2.253906 0.96875 -2.921875 C 0.96875 -3.503906 1.082031 -3.976562 1.3125 -4.34375 C 1.539062 -4.71875 1.847656 -5.007812 2.234375 -5.21875 C 2.628906 -5.425781 3.0625 -5.582031 3.53125 -5.6875 C 4 -5.800781 4.472656 -5.890625 4.953125 -5.953125 C 5.578125 -6.023438 6.082031 -6.082031 6.46875 -6.125 C 6.863281 -6.164062 7.148438 -6.238281 7.328125 -6.34375 C 7.515625 -6.445312 7.609375 -6.628906 7.609375 -6.890625 L 7.609375 -6.9375 C 7.609375 -7.59375 7.425781 -8.101562 7.0625 -8.46875 C 6.707031 -8.84375 6.164062 -9.03125 5.4375 -9.03125 C 4.6875 -9.03125 4.09375 -8.863281 3.65625 -8.53125 C 3.226562 -8.195312 2.929688 -7.84375 2.765625 -7.46875 L 1.265625 -8.015625 C 1.523438 -8.640625 1.878906 -9.125 2.328125 -9.46875 C 2.773438 -9.820312 3.265625 -10.066406 3.796875 -10.203125 C 4.335938 -10.347656 4.867188 -10.421875 5.390625 -10.421875 C 5.710938 -10.421875 6.085938 -10.378906 6.515625 -10.296875 C 6.953125 -10.222656 7.375 -10.066406 7.78125 -9.828125 C 8.1875 -9.585938 8.519531 -9.222656 8.78125 -8.734375 C 9.050781 -8.242188 9.1875 -7.59375 9.1875 -6.78125 L 9.1875 0 L 7.609375 0 L 7.609375 -1.390625 L 7.53125 -1.390625 C 7.414062 -1.171875 7.234375 -0.929688 6.984375 -0.671875 C 6.734375 -0.421875 6.398438 -0.207031 5.984375 -0.03125 C 5.578125 0.144531 5.070312 0.234375 4.46875 0.234375 Z M 4.71875 -1.171875 C 5.34375 -1.171875 5.867188 -1.296875 6.296875 -1.546875 C 6.722656 -1.796875 7.046875 -2.113281 7.265625 -2.5 C 7.492188 -2.882812 7.609375 -3.289062 7.609375 -3.71875 L 7.609375 -5.171875 C 7.535156 -5.085938 7.382812 -5.015625 7.15625 -4.953125 C 6.9375 -4.890625 6.679688 -4.832031 6.390625 -4.78125 C 6.097656 -4.738281 5.8125 -4.695312 5.53125 -4.65625 C 5.257812 -4.625 5.039062 -4.597656 4.875 -4.578125 C 4.46875 -4.523438 4.082031 -4.4375 3.71875 -4.3125 C 3.363281 -4.195312 3.078125 -4.019531 2.859375 -3.78125 C 2.648438 -3.550781 2.546875 -3.238281 2.546875 -2.84375 C 2.546875 -2.289062 2.75 -1.875 3.15625 -1.59375 C 3.5625 -1.3125 4.082031 -1.171875 4.71875 -1.171875 Z M 4.71875 -1.171875 "/></g></g><g style="fill:#2d2a6f;fill-opacity:1;"><g transform="translate(106.33448, 120.118617)"><path style="stroke:none" d="M 1.453125 0 L 1.453125 -10.28125 L 2.96875 -10.28125 L 2.96875 -8.734375 L 3.078125 -8.734375 C 3.265625 -9.242188 3.601562 -9.65625 4.09375 -9.96875 C 4.582031 -10.289062 5.140625 -10.453125 5.765625 -10.453125 C 6.046875 -10.453125 6.289062 -10.414062 6.5 -10.34375 C 6.71875 -10.28125 6.910156 -10.191406 7.078125 -10.078125 L 6.53125 -8.734375 C 6.425781 -8.785156 6.296875 -8.828125 6.140625 -8.859375 C 5.992188 -8.898438 5.820312 -8.921875 5.625 -8.921875 C 4.875 -8.921875 4.253906 -8.691406 3.765625 -8.234375 C 3.273438 -7.773438 3.03125 -7.203125 3.03125 -6.515625 L 3.03125 0 Z M 1.453125 0 "/></g></g><g style="fill:#2d2a6f;fill-opacity:1;"><g transform="translate(113.561572, 120.118617)"><path style="stroke:none" d="M 5.328125 0.21875 C 4.472656 0.21875 3.71875 0 3.0625 -0.4375 C 2.40625 -0.875 1.890625 -1.488281 1.515625 -2.28125 C 1.148438 -3.082031 0.96875 -4.023438 0.96875 -5.109375 C 0.96875 -6.191406 1.148438 -7.128906 1.515625 -7.921875 C 1.890625 -8.722656 2.40625 -9.335938 3.0625 -9.765625 C 3.726562 -10.203125 4.492188 -10.421875 5.359375 -10.421875 C 6.023438 -10.421875 6.550781 -10.304688 6.9375 -10.078125 C 7.332031 -9.859375 7.632812 -9.609375 7.84375 -9.328125 C 8.050781 -9.054688 8.210938 -8.832031 8.328125 -8.65625 L 8.46875 -8.65625 L 8.46875 -13.71875 L 10.046875 -13.71875 L 10.046875 0 L 8.515625 0 L 8.515625 -1.578125 L 8.328125 -1.578125 C 8.210938 -1.390625 8.046875 -1.15625 7.828125 -0.875 C 7.617188 -0.59375 7.316406 -0.335938 6.921875 -0.109375 C 6.523438 0.109375 5.992188 0.21875 5.328125 0.21875 Z M 5.546875 -1.203125 C 6.492188 -1.203125 7.21875 -1.566406 7.71875 -2.296875 C 8.226562 -3.023438 8.484375 -3.972656 8.484375 -5.140625 C 8.484375 -6.296875 8.234375 -7.226562 7.734375 -7.9375 C 7.234375 -8.644531 6.503906 -9 5.546875 -9 C 4.878906 -9 4.320312 -8.828125 3.875 -8.484375 C 3.425781 -8.140625 3.09375 -7.675781 2.875 -7.09375 C 2.65625 -6.519531 2.546875 -5.867188 2.546875 -5.140625 C 2.546875 -4.410156 2.65625 -3.742188 2.875 -3.140625 C 3.101562 -2.546875 3.4375 -2.070312 3.875 -1.71875 C 4.320312 -1.375 4.878906 -1.203125 5.546875 -1.203125 Z M 5.546875 -1.203125 "/></g></g><g style="fill:#2d2a6f;fill-opacity:1;"><g transform="translate(58.585349, 146.368616)"><path style="stroke:none" d="M 2.21875 0 L 0.484375 0 L 5.515625 -13.71875 L 7.234375 -13.71875 L 12.265625 0 L 10.53125 0 L 9.140625 -3.890625 L 3.609375 -3.890625 Z M 4.125 -5.359375 L 8.625 -5.359375 L 6.421875 -11.546875 L 6.328125 -11.546875 Z M 4.125 -5.359375 "/></g></g><g style="fill:#2d2a6f;fill-opacity:1;"><g transform="translate(71.326445, 146.368616)"><path style="stroke:none" d="M 1.453125 3.859375 L 1.453125 -10.28125 L 2.96875 -10.28125 L 2.96875 -8.65625 L 3.15625 -8.65625 C 3.269531 -8.832031 3.429688 -9.054688 3.640625 -9.328125 C 3.847656 -9.609375 4.144531 -9.859375 4.53125 -10.078125 C 4.925781 -10.304688 5.460938 -10.421875 6.140625 -10.421875 C 7.003906 -10.421875 7.765625 -10.203125 8.421875 -9.765625 C 9.085938 -9.335938 9.601562 -8.722656 9.96875 -7.921875 C 10.34375 -7.128906 10.53125 -6.191406 10.53125 -5.109375 C 10.53125 -4.023438 10.34375 -3.082031 9.96875 -2.28125 C 9.601562 -1.488281 9.09375 -0.875 8.4375 -0.4375 C 7.78125 0 7.019531 0.21875 6.15625 0.21875 C 5.5 0.21875 4.972656 0.109375 4.578125 -0.109375 C 4.179688 -0.335938 3.875 -0.59375 3.65625 -0.875 C 3.4375 -1.15625 3.269531 -1.390625 3.15625 -1.578125 L 3.03125 -1.578125 L 3.03125 3.859375 Z M 3 -5.140625 C 3 -3.972656 3.25 -3.023438 3.75 -2.296875 C 4.257812 -1.566406 4.992188 -1.203125 5.953125 -1.203125 C 6.609375 -1.203125 7.15625 -1.375 7.59375 -1.71875 C 8.039062 -2.070312 8.378906 -2.546875 8.609375 -3.140625 C 8.835938 -3.742188 8.953125 -4.410156 8.953125 -5.140625 C 8.953125 -5.867188 8.835938 -6.519531 8.609375 -7.09375 C 8.390625 -7.675781 8.054688 -8.140625 7.609375 -8.484375 C 7.171875 -8.828125 6.617188 -9 5.953125 -9 C 4.984375 -9 4.25 -8.644531 3.75 -7.9375 C 3.25 -7.226562 3 -6.296875 3 -5.140625 Z M 3 -5.140625 "/></g></g><g style="fill:#2d2a6f;fill-opacity:1;"><g transform="translate(82.809492, 146.368616)"><path style="stroke:none" d="M 1.453125 3.859375 L 1.453125 -10.28125 L 2.96875 -10.28125 L 2.96875 -8.65625 L 3.15625 -8.65625 C 3.269531 -8.832031 3.429688 -9.054688 3.640625 -9.328125 C 3.847656 -9.609375 4.144531 -9.859375 4.53125 -10.078125 C 4.925781 -10.304688 5.460938 -10.421875 6.140625 -10.421875 C 7.003906 -10.421875 7.765625 -10.203125 8.421875 -9.765625 C 9.085938 -9.335938 9.601562 -8.722656 9.96875 -7.921875 C 10.34375 -7.128906 10.53125 -6.191406 10.53125 -5.109375 C 10.53125 -4.023438 10.34375 -3.082031 9.96875 -2.28125 C 9.601562 -1.488281 9.09375 -0.875 8.4375 -0.4375 C 7.78125 0 7.019531 0.21875 6.15625 0.21875 C 5.5 0.21875 4.972656 0.109375 4.578125 -0.109375 C 4.179688 -0.335938 3.875 -0.59375 3.65625 -0.875 C 3.4375 -1.15625 3.269531 -1.390625 3.15625 -1.578125 L 3.03125 -1.578125 L 3.03125 3.859375 Z M 3 -5.140625 C 3 -3.972656 3.25 -3.023438 3.75 -2.296875 C 4.257812 -1.566406 4.992188 -1.203125 5.953125 -1.203125 C 6.609375 -1.203125 7.15625 -1.375 7.59375 -1.71875 C 8.039062 -2.070312 8.378906 -2.546875 8.609375 -3.140625 C 8.835938 -3.742188 8.953125 -4.410156 8.953125 -5.140625 C 8.953125 -5.867188 8.835938 -6.519531 8.609375 -7.09375 C 8.390625 -7.675781 8.054688 -8.140625 7.609375 -8.484375 C 7.171875 -8.828125 6.617188 -9 5.953125 -9 C 4.984375 -9 4.25 -8.644531 3.75 -7.9375 C 3.25 -7.226562 3 -6.296875 3 -5.140625 Z M 3 -5.140625 "/></g></g></g></svg>