<svg xmlns="http://www.w3.org/2000/svg" xmlns:xlink="http://www.w3.org/1999/xlink" width="200" zoomAndPan="magnify" viewBox="0 0 150 149.999998" height="200" preserveAspectRatio="xMidYMid meet" version="1.2"><defs><clipPath id="27dbd78a1a"><path d="M 18.296875 0 L 134.601562 0 L 134.601562 88.683594 L 18.296875 88.683594 Z M 18.296875 0 "/></clipPath><clipPath id="ca90ce4a0e"><path d="M 18.296875 19 L 134.601562 19 L 134.601562 88.683594 L 18.296875 88.683594 Z M 18.296875 19 "/></clipPath></defs><g id="0f5a2aedb1"><g clip-rule="nonzero" clip-path="url(#27dbd78a1a)"><path style=" stroke:none;fill-rule:nonzero;fill:#f7acb9;fill-opacity:1;" d="M 134.601562 17.292969 L 134.601562 78.75 C 134.601562 84.050781 130.296875 88.332031 125.019531 88.332031 L 27.878906 88.332031 C 22.597656 88.355469 18.296875 84.050781 18.296875 78.769531 L 18.296875 17.292969 C 18.296875 15.292969 18.296875 9.152344 18.296875 7.429688 L 18.296875 6.871094 C 18.296875 3.101562 21.367188 0.03125 25.15625 0.03125 L 56.421875 0.03125 C 60.210938 0.03125 63.28125 3.101562 63.28125 6.894531 L 63.28125 7.453125 C 63.28125 7.546875 63.28125 7.640625 63.28125 7.730469 L 125.019531 7.730469 C 130.296875 7.707031 134.601562 12.011719 134.601562 17.292969 Z M 134.601562 17.292969 "/></g><g clip-rule="nonzero" clip-path="url(#ca90ce4a0e)"><path style=" stroke:none;fill-rule:nonzero;fill:#ffc0cb;fill-opacity:1;" d="M 18.296875 84.285156 L 18.296875 23.851562 C 18.296875 21.59375 20.109375 19.78125 22.367188 19.78125 L 130.53125 19.78125 C 132.789062 19.78125 134.601562 21.59375 134.601562 23.851562 L 134.601562 84.285156 C 134.601562 86.539062 132.789062 88.355469 130.53125 88.355469 L 22.367188 88.355469 C 20.109375 88.355469 18.296875 86.539062 18.296875 84.285156 Z M 18.296875 84.285156 "/></g><g style="fill:#2d2a6f;fill-opacity:1;"><g transform="translate(17.921289, 120.118625)"><path style="stroke:none" d="M 1.65625 0 L 1.65625 -13.71875 L 9.9375 -13.71875 L 9.9375 -12.25 L 3.328125 -12.25 L 3.328125 -7.609375 L 9.515625 -7.609375 L 9.515625 -6.140625 L 3.328125 -6.140625 L 3.328125 -1.46875 L 10.046875 -1.46875 L 10.046875 0 Z M 1.65625 0 "/></g></g><g style="fill:#2d2a6f;fill-opacity:1;"><g transform="translate(29.190205, 120.118625)"><path style="stroke:none" d="M 7.34375 -6.609375 L 7.34375 -5.140625 L 1.34375 -5.140625 L 1.34375 -6.609375 Z M 7.34375 -6.609375 "/></g></g><g style="fill:#2d2a6f;fill-opacity:1;"><g transform="translate(37.86272, 120.118625)"><path style="stroke:none" d="M 12.703125 -9.421875 L 11.03125 -9.421875 C 10.90625 -10.054688 10.648438 -10.59375 10.265625 -11.03125 C 9.890625 -11.46875 9.429688 -11.796875 8.890625 -12.015625 C 8.359375 -12.234375 7.785156 -12.34375 7.171875 -12.34375 C 6.347656 -12.34375 5.597656 -12.132812 4.921875 -11.71875 C 4.253906 -11.300781 3.722656 -10.679688 3.328125 -9.859375 C 2.929688 -9.046875 2.734375 -8.046875 2.734375 -6.859375 C 2.734375 -5.671875 2.929688 -4.664062 3.328125 -3.84375 C 3.722656 -3.03125 4.253906 -2.410156 4.921875 -1.984375 C 5.597656 -1.566406 6.347656 -1.359375 7.171875 -1.359375 C 7.785156 -1.359375 8.359375 -1.46875 8.890625 -1.6875 C 9.429688 -1.914062 9.890625 -2.242188 10.265625 -2.671875 C 10.648438 -3.109375 10.90625 -3.644531 11.03125 -4.28125 L 12.703125 -4.28125 C 12.523438 -3.34375 12.175781 -2.539062 11.65625 -1.875 C 11.132812 -1.207031 10.488281 -0.695312 9.71875 -0.34375 C 8.945312 0.0078125 8.097656 0.1875 7.171875 0.1875 C 6.003906 0.1875 4.960938 -0.0976562 4.046875 -0.671875 C 3.140625 -1.242188 2.425781 -2.054688 1.90625 -3.109375 C 1.382812 -4.160156 1.125 -5.410156 1.125 -6.859375 C 1.125 -8.304688 1.382812 -9.554688 1.90625 -10.609375 C 2.425781 -11.660156 3.140625 -12.472656 4.046875 -13.046875 C 4.960938 -13.617188 6.003906 -13.90625 7.171875 -13.90625 C 8.097656 -13.90625 8.945312 -13.726562 9.71875 -13.375 C 10.488281 -13.019531 11.132812 -12.507812 11.65625 -11.84375 C 12.175781 -11.175781 12.523438 -10.367188 12.703125 -9.421875 Z M 12.703125 -9.421875 "/></g></g><g style="fill:#2d2a6f;fill-opacity:1;"><g transform="translate(51.567431, 120.118625)"><path style="stroke:none" d="M 5.625 0.21875 C 4.695312 0.21875 3.882812 0 3.1875 -0.4375 C 2.488281 -0.882812 1.941406 -1.503906 1.546875 -2.296875 C 1.160156 -3.097656 0.96875 -4.03125 0.96875 -5.09375 C 0.96875 -6.164062 1.160156 -7.097656 1.546875 -7.890625 C 1.941406 -8.691406 2.488281 -9.3125 3.1875 -9.75 C 3.882812 -10.195312 4.695312 -10.421875 5.625 -10.421875 C 6.550781 -10.421875 7.363281 -10.195312 8.0625 -9.75 C 8.757812 -9.3125 9.300781 -8.691406 9.6875 -7.890625 C 10.082031 -7.097656 10.28125 -6.164062 10.28125 -5.09375 C 10.28125 -4.03125 10.082031 -3.097656 9.6875 -2.296875 C 9.300781 -1.503906 8.757812 -0.882812 8.0625 -0.4375 C 7.363281 0 6.550781 0.21875 5.625 0.21875 Z M 5.625 -1.203125 C 6.332031 -1.203125 6.910156 -1.382812 7.359375 -1.75 C 7.816406 -2.113281 8.15625 -2.585938 8.375 -3.171875 C 8.59375 -3.765625 8.703125 -4.40625 8.703125 -5.09375 C 8.703125 -5.78125 8.59375 -6.421875 8.375 -7.015625 C 8.15625 -7.609375 7.816406 -8.085938 7.359375 -8.453125 C 6.910156 -8.816406 6.332031 -9 5.625 -9 C 4.914062 -9 4.332031 -8.816406 3.875 -8.453125 C 3.425781 -8.085938 3.09375 -7.609375 2.875 -7.015625 C 2.65625 -6.421875 2.546875 -5.78125 2.546875 -5.09375 C 2.546875 -4.40625 2.65625 -3.765625 2.875 -3.171875 C 3.09375 -2.585938 3.425781 -2.113281 3.875 -1.75 C 4.332031 -1.382812 4.914062 -1.203125 5.625 -1.203125 Z M 5.625 -1.203125 "/></g></g><g style="fill:#2d2a6f;fill-opacity:1;"><g transform="translate(62.80958, 120.118625)"><path style="stroke:none" d="M 1.453125 0 L 1.453125 -10.28125 L 2.96875 -10.28125 L 2.96875 -8.671875 L 3.109375 -8.671875 C 3.316406 -9.222656 3.660156 -9.648438 4.140625 -9.953125 C 4.617188 -10.265625 5.191406 -10.421875 5.859375 -10.421875 C 6.546875 -10.421875 7.113281 -10.265625 7.5625 -9.953125 C 8.019531 -9.648438 8.375 -9.222656 8.625 -8.671875 L 8.734375 -8.671875 C 8.992188 -9.203125 9.382812 -9.625 9.90625 -9.9375 C 10.4375 -10.257812 11.070312 -10.421875 11.8125 -10.421875 C 12.726562 -10.421875 13.476562 -10.132812 14.0625 -9.5625 C 14.65625 -8.988281 14.953125 -8.097656 14.953125 -6.890625 L 14.953125 0 L 13.375 0 L 13.375 -6.890625 C 13.375 -7.640625 13.164062 -8.175781 12.75 -8.5 C 12.332031 -8.832031 11.84375 -9 11.28125 -9 C 10.550781 -9 9.988281 -8.78125 9.59375 -8.34375 C 9.195312 -7.90625 9 -7.359375 9 -6.703125 L 9 0 L 7.390625 0 L 7.390625 -7.046875 C 7.390625 -7.628906 7.195312 -8.097656 6.8125 -8.453125 C 6.4375 -8.816406 5.953125 -9 5.359375 -9 C 4.941406 -9 4.554688 -8.890625 4.203125 -8.671875 C 3.847656 -8.453125 3.5625 -8.148438 3.34375 -7.765625 C 3.132812 -7.378906 3.03125 -6.929688 3.03125 -6.421875 L 3.03125 0 Z M 1.453125 0 "/></g></g><g style="fill:#2d2a6f;fill-opacity:1;"><g transform="translate(79.190995, 120.118625)"><path style="stroke:none" d="M 1.453125 0 L 1.453125 -10.28125 L 2.96875 -10.28125 L 2.96875 -8.671875 L 3.109375 -8.671875 C 3.316406 -9.222656 3.660156 -9.648438 4.140625 -9.953125 C 4.617188 -10.265625 5.191406 -10.421875 5.859375 -10.421875 C 6.546875 -10.421875 7.113281 -10.265625 7.5625 -9.953125 C 8.019531 -9.648438 8.375 -9.222656 8.625 -8.671875 L 8.734375 -8.671875 C 8.992188 -9.203125 9.382812 -9.625 9.90625 -9.9375 C 10.4375 -10.257812 11.070312 -10.421875 11.8125 -10.421875 C 12.726562 -10.421875 13.476562 -10.132812 14.0625 -9.5625 C 14.65625 -8.988281 14.953125 -8.097656 14.953125 -6.890625 L 14.953125 0 L 13.375 0 L 13.375 -6.890625 C 13.375 -7.640625 13.164062 -8.175781 12.75 -8.5 C 12.332031 -8.832031 11.84375 -9 11.28125 -9 C 10.550781 -9 9.988281 -8.78125 9.59375 -8.34375 C 9.195312 -7.90625 9 -7.359375 9 -6.703125 L 9 0 L 7.390625 0 L 7.390625 -7.046875 C 7.390625 -7.628906 7.195312 -8.097656 6.8125 -8.453125 C 6.4375 -8.816406 5.953125 -9 5.359375 -9 C 4.941406 -9 4.554688 -8.890625 4.203125 -8.671875 C 3.847656 -8.453125 3.5625 -8.148438 3.34375 -7.765625 C 3.132812 -7.378906 3.03125 -6.929688 3.03125 -6.421875 L 3.03125 0 Z M 1.453125 0 "/></g></g><g style="fill:#2d2a6f;fill-opacity:1;"><g transform="translate(95.57241, 120.118625)"><path style="stroke:none" d="M 5.765625 0.21875 C 4.765625 0.21875 3.90625 0 3.1875 -0.4375 C 2.476562 -0.882812 1.929688 -1.503906 1.546875 -2.296875 C 1.160156 -3.085938 0.96875 -4.007812 0.96875 -5.0625 C 0.96875 -6.113281 1.160156 -7.039062 1.546875 -7.84375 C 1.929688 -8.65625 2.46875 -9.285156 3.15625 -9.734375 C 3.851562 -10.191406 4.664062 -10.421875 5.59375 -10.421875 C 6.132812 -10.421875 6.664062 -10.332031 7.1875 -10.15625 C 7.707031 -9.976562 8.179688 -9.6875 8.609375 -9.28125 C 9.035156 -8.882812 9.375 -8.359375 9.625 -7.703125 C 9.882812 -7.046875 10.015625 -6.238281 10.015625 -5.28125 L 10.015625 -4.609375 L 2.546875 -4.609375 C 2.585938 -3.503906 2.898438 -2.660156 3.484375 -2.078125 C 4.066406 -1.492188 4.828125 -1.203125 5.765625 -1.203125 C 6.378906 -1.203125 6.910156 -1.335938 7.359375 -1.609375 C 7.804688 -1.878906 8.128906 -2.28125 8.328125 -2.8125 L 9.859375 -2.390625 C 9.617188 -1.609375 9.132812 -0.976562 8.40625 -0.5 C 7.6875 -0.0195312 6.804688 0.21875 5.765625 0.21875 Z M 2.546875 -5.96875 L 8.40625 -5.96875 C 8.40625 -6.84375 8.148438 -7.566406 7.640625 -8.140625 C 7.140625 -8.710938 6.457031 -9 5.59375 -9 C 4.988281 -9 4.46875 -8.859375 4.03125 -8.578125 C 3.59375 -8.296875 3.242188 -7.921875 2.984375 -7.453125 C 2.734375 -6.992188 2.585938 -6.5 2.546875 -5.96875 Z M 2.546875 -5.96875 "/></g></g><g style="fill:#2d2a6f;fill-opacity:1;"><g transform="translate(106.546882, 120.118625)"><path style="stroke:none" d="M 1.453125 0 L 1.453125 -10.28125 L 2.96875 -10.28125 L 2.96875 -8.734375 L 3.078125 -8.734375 C 3.265625 -9.242188 3.601562 -9.65625 4.09375 -9.96875 C 4.582031 -10.289062 5.140625 -10.453125 5.765625 -10.453125 C 6.046875 -10.453125 6.289062 -10.414062 6.5 -10.34375 C 6.71875 -10.28125 6.910156 -10.191406 7.078125 -10.078125 L 6.53125 -8.734375 C 6.425781 -8.785156 6.296875 -8.828125 6.140625 -8.859375 C 5.992188 -8.898438 5.820312 -8.921875 5.625 -8.921875 C 4.875 -8.921875 4.253906 -8.691406 3.765625 -8.234375 C 3.273438 -7.773438 3.03125 -7.203125 3.03125 -6.515625 L 3.03125 0 Z M 1.453125 0 "/></g></g><g style="fill:#2d2a6f;fill-opacity:1;"><g transform="translate(113.452578, 120.118625)"><path style="stroke:none" d="M 5.625 0.21875 C 4.65625 0.21875 3.820312 -0.0078125 3.125 -0.46875 C 2.4375 -0.925781 1.90625 -1.550781 1.53125 -2.34375 C 1.15625 -3.144531 0.96875 -4.0625 0.96875 -5.09375 C 0.96875 -6.132812 1.160156 -7.054688 1.546875 -7.859375 C 1.929688 -8.660156 2.46875 -9.285156 3.15625 -9.734375 C 3.851562 -10.191406 4.664062 -10.421875 5.59375 -10.421875 C 6.320312 -10.421875 6.972656 -10.285156 7.546875 -10.015625 C 8.128906 -9.742188 8.601562 -9.367188 8.96875 -8.890625 C 9.34375 -8.410156 9.578125 -7.847656 9.671875 -7.203125 L 8.09375 -7.203125 C 7.96875 -7.671875 7.695312 -8.085938 7.28125 -8.453125 C 6.875 -8.816406 6.320312 -9 5.625 -9 C 4.695312 -9 3.953125 -8.644531 3.390625 -7.9375 C 2.828125 -7.238281 2.546875 -6.304688 2.546875 -5.140625 C 2.546875 -3.953125 2.820312 -3 3.375 -2.28125 C 3.9375 -1.5625 4.6875 -1.203125 5.625 -1.203125 C 6.238281 -1.203125 6.765625 -1.359375 7.203125 -1.671875 C 7.648438 -1.992188 7.945312 -2.4375 8.09375 -3 L 9.671875 -3 C 9.578125 -2.394531 9.351562 -1.847656 9 -1.359375 C 8.65625 -0.878906 8.195312 -0.492188 7.625 -0.203125 C 7.050781 0.078125 6.382812 0.21875 5.625 0.21875 Z M 5.625 0.21875 "/></g></g><g style="fill:#2d2a6f;fill-opacity:1;"><g transform="translate(123.97201, 120.118625)"><path style="stroke:none" d="M 5.765625 0.21875 C 4.765625 0.21875 3.90625 0 3.1875 -0.4375 C 2.476562 -0.882812 1.929688 -1.503906 1.546875 -2.296875 C 1.160156 -3.085938 0.96875 -4.007812 0.96875 -5.0625 C 0.96875 -6.113281 1.160156 -7.039062 1.546875 -7.84375 C 1.929688 -8.65625 2.46875 -9.285156 3.15625 -9.734375 C 3.851562 -10.191406 4.664062 -10.421875 5.59375 -10.421875 C 6.132812 -10.421875 6.664062 -10.332031 7.1875 -10.15625 C 7.707031 -9.976562 8.179688 -9.6875 8.609375 -9.28125 C 9.035156 -8.882812 9.375 -8.359375 9.625 -7.703125 C 9.882812 -7.046875 10.015625 -6.238281 10.015625 -5.28125 L 10.015625 -4.609375 L 2.546875 -4.609375 C 2.585938 -3.503906 2.898438 -2.660156 3.484375 -2.078125 C 4.066406 -1.492188 4.828125 -1.203125 5.765625 -1.203125 C 6.378906 -1.203125 6.910156 -1.335938 7.359375 -1.609375 C 7.804688 -1.878906 8.128906 -2.28125 8.328125 -2.8125 L 9.859375 -2.390625 C 9.617188 -1.609375 9.132812 -0.976562 8.40625 -0.5 C 7.6875 -0.0195312 6.804688 0.21875 5.765625 0.21875 Z M 2.546875 -5.96875 L 8.40625 -5.96875 C 8.40625 -6.84375 8.148438 -7.566406 7.640625 -8.140625 C 7.140625 -8.710938 6.457031 -9 5.59375 -9 C 4.988281 -9 4.46875 -8.859375 4.03125 -8.578125 C 3.59375 -8.296875 3.242188 -7.921875 2.984375 -7.453125 C 2.734375 -6.992188 2.585938 -6.5 2.546875 -5.96875 Z M 2.546875 -5.96875 "/></g></g><g style="fill:#2d2a6f;fill-opacity:1;"><g transform="translate(58.585349, 146.368623)"><path style="stroke:none" d="M 2.21875 0 L 0.484375 0 L 5.515625 -13.71875 L 7.234375 -13.71875 L 12.265625 0 L 10.53125 0 L 9.140625 -3.890625 L 3.609375 -3.890625 Z M 4.125 -5.359375 L 8.625 -5.359375 L 6.421875 -11.546875 L 6.328125 -11.546875 Z M 4.125 -5.359375 "/></g></g><g style="fill:#2d2a6f;fill-opacity:1;"><g transform="translate(71.326445, 146.368623)"><path style="stroke:none" d="M 1.453125 3.859375 L 1.453125 -10.28125 L 2.96875 -10.28125 L 2.96875 -8.65625 L 3.15625 -8.65625 C 3.269531 -8.832031 3.429688 -9.054688 3.640625 -9.328125 C 3.847656 -9.609375 4.144531 -9.859375 4.53125 -10.078125 C 4.925781 -10.304688 5.460938 -10.421875 6.140625 -10.421875 C 7.003906 -10.421875 7.765625 -10.203125 8.421875 -9.765625 C 9.085938 -9.335938 9.601562 -8.722656 9.96875 -7.921875 C 10.34375 -7.128906 10.53125 -6.191406 10.53125 -5.109375 C 10.53125 -4.023438 10.34375 -3.082031 9.96875 -2.28125 C 9.601562 -1.488281 9.09375 -0.875 8.4375 -0.4375 C 7.78125 0 7.019531 0.21875 6.15625 0.21875 C 5.5 0.21875 4.972656 0.109375 4.578125 -0.109375 C 4.179688 -0.335938 3.875 -0.59375 3.65625 -0.875 C 3.4375 -1.15625 3.269531 -1.390625 3.15625 -1.578125 L 3.03125 -1.578125 L 3.03125 3.859375 Z M 3 -5.140625 C 3 -3.972656 3.25 -3.023438 3.75 -2.296875 C 4.257812 -1.566406 4.992188 -1.203125 5.953125 -1.203125 C 6.609375 -1.203125 7.15625 -1.375 7.59375 -1.71875 C 8.039062 -2.070312 8.378906 -2.546875 8.609375 -3.140625 C 8.835938 -3.742188 8.953125 -4.410156 8.953125 -5.140625 C 8.953125 -5.867188 8.835938 -6.519531 8.609375 -7.09375 C 8.390625 -7.675781 8.054688 -8.140625 7.609375 -8.484375 C 7.171875 -8.828125 6.617188 -9 5.953125 -9 C 4.984375 -9 4.25 -8.644531 3.75 -7.9375 C 3.25 -7.226562 3 -6.296875 3 -5.140625 Z M 3 -5.140625 "/></g></g><g style="fill:#2d2a6f;fill-opacity:1;"><g transform="translate(82.809492, 146.368623)"><path style="stroke:none" d="M 1.453125 3.859375 L 1.453125 -10.28125 L 2.96875 -10.28125 L 2.96875 -8.65625 L 3.15625 -8.65625 C 3.269531 -8.832031 3.429688 -9.054688 3.640625 -9.328125 C 3.847656 -9.609375 4.144531 -9.859375 4.53125 -10.078125 C 4.925781 -10.304688 5.460938 -10.421875 6.140625 -10.421875 C 7.003906 -10.421875 7.765625 -10.203125 8.421875 -9.765625 C 9.085938 -9.335938 9.601562 -8.722656 9.96875 -7.921875 C 10.34375 -7.128906 10.53125 -6.191406 10.53125 -5.109375 C 10.53125 -4.023438 10.34375 -3.082031 9.96875 -2.28125 C 9.601562 -1.488281 9.09375 -0.875 8.4375 -0.4375 C 7.78125 0 7.019531 0.21875 6.15625 0.21875 C 5.5 0.21875 4.972656 0.109375 4.578125 -0.109375 C 4.179688 -0.335938 3.875 -0.59375 3.65625 -0.875 C 3.4375 -1.15625 3.269531 -1.390625 3.15625 -1.578125 L 3.03125 -1.578125 L 3.03125 3.859375 Z M 3 -5.140625 C 3 -3.972656 3.25 -3.023438 3.75 -2.296875 C 4.257812 -1.566406 4.992188 -1.203125 5.953125 -1.203125 C 6.609375 -1.203125 7.15625 -1.375 7.59375 -1.71875 C 8.039062 -2.070312 8.378906 -2.546875 8.609375 -3.140625 C 8.835938 -3.742188 8.953125 -4.410156 8.953125 -5.140625 C 8.953125 -5.867188 8.835938 -6.519531 8.609375 -7.09375 C 8.390625 -7.675781 8.054688 -8.140625 7.609375 -8.484375 C 7.171875 -8.828125 6.617188 -9 5.953125 -9 C 4.984375 -9 4.25 -8.644531 3.75 -7.9375 C 3.25 -7.226562 3 -6.296875 3 -5.140625 Z M 3 -5.140625 "/></g></g></g></svg>