<svg xmlns="http://www.w3.org/2000/svg" xmlns:xlink="http://www.w3.org/1999/xlink" width="200" zoomAndPan="magnify" viewBox="0 0 150 149.999998" height="200" preserveAspectRatio="xMidYMid meet" version="1.2"><defs><clipPath id="9be427f660"><path d="M 22.964844 15 L 127 15 L 127 135 L 22.964844 135 Z M 22.964844 15 "/></clipPath></defs><g id="3f0b9ff55e"><path style=" stroke:none;fill-rule:nonzero;fill:#f7acb9;fill-opacity:1;" d="M 56.390625 79.410156 C 56.179688 79.25 55.945312 79.136719 55.6875 79.066406 C 55.433594 79 55.171875 78.984375 54.910156 79.019531 C 54.648438 79.054688 54.402344 79.136719 54.171875 79.269531 C 53.941406 79.40625 53.75 79.578125 53.585938 79.789062 L 41.402344 95.789062 C 41.128906 96.144531 40.992188 96.550781 40.992188 97 C 40.992188 97.449219 41.128906 97.855469 41.402344 98.210938 L 53.585938 114.210938 C 53.75 114.421875 53.941406 114.59375 54.171875 114.726562 C 54.402344 114.863281 54.648438 114.945312 54.910156 114.980469 C 55.171875 115.015625 55.433594 115 55.6875 114.933594 C 55.945312 114.863281 56.179688 114.75 56.390625 114.589844 C 56.601562 114.429688 56.773438 114.234375 56.90625 114.003906 C 57.039062 113.777344 57.125 113.53125 57.160156 113.265625 C 57.195312 113.003906 57.179688 112.746094 57.113281 112.488281 C 57.042969 112.230469 56.929688 112 56.769531 111.789062 L 45.519531 97 L 56.769531 82.210938 C 56.929688 82 57.042969 81.769531 57.113281 81.511719 C 57.179688 81.253906 57.195312 80.996094 57.160156 80.734375 C 57.125 80.46875 57.039062 80.222656 56.90625 79.996094 C 56.773438 79.765625 56.601562 79.570312 56.390625 79.410156 Z M 56.390625 79.410156 "/><path style=" stroke:none;fill-rule:nonzero;fill:#f7acb9;fill-opacity:1;" d="M 88.363281 79.785156 C 88.203125 79.574219 88.007812 79.402344 87.777344 79.269531 C 87.550781 79.136719 87.304688 79.050781 87.039062 79.015625 C 86.777344 78.980469 86.519531 79 86.261719 79.066406 C 86.003906 79.136719 85.773438 79.25 85.5625 79.410156 C 85.351562 79.574219 85.179688 79.769531 85.046875 79.996094 C 84.914062 80.226562 84.828125 80.472656 84.792969 80.734375 C 84.757812 81 84.773438 81.257812 84.84375 81.515625 C 84.910156 81.769531 85.027344 82.003906 85.1875 82.214844 L 96.480469 97 L 85.1875 111.785156 C 85.027344 111.996094 84.910156 112.230469 84.84375 112.484375 C 84.773438 112.742188 84.757812 113 84.792969 113.265625 C 84.828125 113.527344 84.914062 113.773438 85.046875 114.003906 C 85.179688 114.230469 85.351562 114.425781 85.5625 114.589844 C 85.773438 114.75 86.003906 114.863281 86.261719 114.933594 C 86.519531 115 86.777344 115.019531 87.039062 114.984375 C 87.304688 114.949219 87.550781 114.863281 87.777344 114.730469 C 88.007812 114.597656 88.203125 114.425781 88.363281 114.214844 L 100.585938 98.214844 C 100.859375 97.855469 100.996094 97.453125 100.996094 97 C 100.996094 96.546875 100.859375 96.144531 100.585938 95.785156 Z M 88.363281 79.785156 "/><path style=" stroke:none;fill-rule:nonzero;fill:#f7acb9;fill-opacity:1;" d="M 74.941406 79.046875 C 74.679688 78.988281 74.421875 78.984375 74.160156 79.03125 C 73.898438 79.078125 73.65625 79.171875 73.433594 79.316406 C 73.210938 79.460938 73.023438 79.640625 72.871094 79.855469 C 72.71875 80.074219 72.617188 80.3125 72.558594 80.574219 L 65.558594 112.574219 C 65.492188 112.835938 65.480469 113.101562 65.519531 113.371094 C 65.5625 113.636719 65.652344 113.886719 65.792969 114.117188 C 65.9375 114.347656 66.117188 114.542969 66.339844 114.699219 C 66.5625 114.855469 66.804688 114.964844 67.070312 115.023438 C 67.335938 115.082031 67.601562 115.085938 67.867188 115.035156 C 68.132812 114.984375 68.378906 114.882812 68.605469 114.734375 C 68.832031 114.582031 69.019531 114.394531 69.167969 114.167969 C 69.316406 113.941406 69.417969 113.695312 69.464844 113.425781 L 76.464844 81.425781 C 76.523438 81.167969 76.527344 80.910156 76.480469 80.648438 C 76.433594 80.386719 76.339844 80.144531 76.195312 79.921875 C 76.054688 79.695312 75.871094 79.507812 75.65625 79.359375 C 75.4375 79.207031 75.199219 79.101562 74.941406 79.046875 Z M 74.941406 79.046875 "/><g clip-rule="nonzero" clip-path="url(#9be427f660)"><path style=" stroke:none;fill-rule:nonzero;fill:#f7acb9;fill-opacity:1;" d="M 124.996094 15 L 32.996094 15 C 32.730469 15 32.472656 15.050781 32.230469 15.152344 C 31.984375 15.253906 31.769531 15.398438 31.582031 15.585938 C 31.394531 15.773438 31.25 15.988281 31.148438 16.234375 C 31.046875 16.480469 30.996094 16.734375 30.996094 17 L 30.996094 23 L 24.996094 23 C 24.730469 23 24.472656 23.050781 24.230469 23.152344 C 23.984375 23.253906 23.769531 23.398438 23.582031 23.585938 C 23.394531 23.773438 23.25 23.988281 23.148438 24.234375 C 23.046875 24.480469 22.996094 24.734375 22.996094 25 L 22.996094 133 C 22.996094 133.265625 23.046875 133.519531 23.148438 133.765625 C 23.25 134.011719 23.394531 134.226562 23.582031 134.414062 C 23.769531 134.601562 23.984375 134.746094 24.230469 134.847656 C 24.472656 134.949219 24.730469 135 24.996094 135 L 116.996094 135 C 117.261719 135 117.515625 134.949219 117.761719 134.847656 C 118.003906 134.746094 118.222656 134.601562 118.410156 134.414062 C 118.597656 134.226562 118.742188 134.011719 118.84375 133.765625 C 118.945312 133.519531 118.996094 133.265625 118.996094 133 L 118.996094 127 L 124.996094 127 C 125.261719 127 125.515625 126.949219 125.761719 126.847656 C 126.003906 126.746094 126.222656 126.601562 126.410156 126.414062 C 126.597656 126.226562 126.742188 126.011719 126.84375 125.765625 C 126.945312 125.519531 126.996094 125.265625 126.996094 125 L 126.996094 17 C 126.996094 16.734375 126.945312 16.480469 126.84375 16.234375 C 126.742188 15.988281 126.597656 15.773438 126.410156 15.585938 C 126.222656 15.398438 126.003906 15.253906 125.761719 15.152344 C 125.515625 15.050781 125.261719 15 124.996094 15 Z M 32.996094 33 C 32.996094 32.734375 33.046875 32.480469 33.148438 32.234375 C 33.25 31.988281 33.394531 31.773438 33.582031 31.585938 C 33.769531 31.398438 33.984375 31.253906 34.230469 31.152344 C 34.472656 31.050781 34.730469 31 34.996094 31 C 35.261719 31 35.515625 31.050781 35.761719 31.152344 C 36.003906 31.253906 36.222656 31.398438 36.410156 31.585938 C 36.597656 31.773438 36.742188 31.988281 36.84375 32.234375 C 36.945312 32.480469 36.996094 32.734375 36.996094 33 L 36.996094 41 L 44.996094 41 L 44.996094 33 C 44.996094 32.734375 45.046875 32.480469 45.148438 32.234375 C 45.25 31.988281 45.394531 31.773438 45.582031 31.585938 C 45.769531 31.398438 45.984375 31.253906 46.230469 31.152344 C 46.472656 31.050781 46.730469 31 46.996094 31 C 47.261719 31 47.515625 31.050781 47.761719 31.152344 C 48.003906 31.253906 48.222656 31.398438 48.410156 31.585938 C 48.597656 31.773438 48.742188 31.988281 48.84375 32.234375 C 48.945312 32.480469 48.996094 32.734375 48.996094 33 L 48.996094 53 C 48.996094 53.265625 48.945312 53.519531 48.84375 53.765625 C 48.742188 54.011719 48.597656 54.226562 48.410156 54.414062 C 48.222656 54.601562 48.003906 54.746094 47.761719 54.847656 C 47.515625 54.949219 47.261719 55 46.996094 55 C 46.730469 55 46.472656 54.949219 46.230469 54.847656 C 45.984375 54.746094 45.769531 54.601562 45.582031 54.414062 C 45.394531 54.226562 45.25 54.011719 45.148438 53.765625 C 45.046875 53.519531 44.996094 53.265625 44.996094 53 L 44.996094 45 L 36.996094 45 L 36.996094 53 C 36.996094 53.265625 36.945312 53.519531 36.84375 53.765625 C 36.742188 54.011719 36.597656 54.226562 36.410156 54.414062 C 36.222656 54.601562 36.003906 54.746094 35.761719 54.847656 C 35.515625 54.949219 35.261719 55 34.996094 55 C 34.730469 55 34.472656 54.949219 34.230469 54.847656 C 33.984375 54.746094 33.769531 54.601562 33.582031 54.414062 C 33.394531 54.226562 33.25 54.011719 33.148438 53.765625 C 33.046875 53.519531 32.996094 53.265625 32.996094 53 Z M 114.996094 131 L 26.996094 131 L 26.996094 63 L 114.996094 63 Z M 54.996094 35 C 54.730469 35 54.472656 34.949219 54.230469 34.847656 C 53.984375 34.746094 53.769531 34.601562 53.582031 34.414062 C 53.394531 34.226562 53.25 34.011719 53.148438 33.765625 C 53.046875 33.519531 52.996094 33.265625 52.996094 33 C 52.996094 32.734375 53.046875 32.480469 53.148438 32.234375 C 53.25 31.988281 53.394531 31.773438 53.582031 31.585938 C 53.769531 31.398438 53.984375 31.253906 54.230469 31.152344 C 54.472656 31.050781 54.730469 31 54.996094 31 L 66.996094 31 C 67.261719 31 67.515625 31.050781 67.761719 31.152344 C 68.003906 31.253906 68.222656 31.398438 68.410156 31.585938 C 68.597656 31.773438 68.742188 31.988281 68.84375 32.234375 C 68.945312 32.480469 68.996094 32.734375 68.996094 33 C 68.996094 33.265625 68.945312 33.519531 68.84375 33.765625 C 68.742188 34.011719 68.597656 34.226562 68.410156 34.414062 C 68.222656 34.601562 68.003906 34.746094 67.761719 34.847656 C 67.515625 34.949219 67.261719 35 66.996094 35 L 62.996094 35 L 62.996094 53 C 62.996094 53.265625 62.945312 53.519531 62.84375 53.765625 C 62.742188 54.011719 62.597656 54.226562 62.410156 54.414062 C 62.222656 54.601562 62.003906 54.746094 61.761719 54.847656 C 61.515625 54.949219 61.261719 55 60.996094 55 C 60.730469 55 60.472656 54.949219 60.230469 54.847656 C 59.984375 54.746094 59.769531 54.601562 59.582031 54.414062 C 59.394531 54.226562 59.25 54.011719 59.148438 53.765625 C 59.046875 53.519531 58.996094 53.265625 58.996094 53 L 58.996094 35 Z M 82.714844 44.019531 C 81.996094 45.25 79.996094 45.25 79.273438 44.019531 L 76.996094 40.21875 L 76.996094 53 C 76.996094 53.265625 76.945312 53.519531 76.84375 53.765625 C 76.742188 54.011719 76.597656 54.226562 76.410156 54.414062 C 76.222656 54.601562 76.003906 54.746094 75.761719 54.847656 C 75.515625 54.949219 75.261719 55 74.996094 55 C 74.730469 55 74.472656 54.949219 74.230469 54.847656 C 73.984375 54.746094 73.769531 54.601562 73.582031 54.414062 C 73.394531 54.226562 73.25 54.011719 73.148438 53.765625 C 73.046875 53.519531 72.996094 53.265625 72.996094 53 L 72.996094 33 C 72.996094 32.550781 73.132812 32.144531 73.40625 31.789062 C 73.679688 31.429688 74.03125 31.191406 74.464844 31.070312 C 74.898438 30.953125 75.328125 30.976562 75.742188 31.144531 C 76.160156 31.316406 76.484375 31.59375 76.714844 31.980469 L 80.996094 39.121094 L 85.273438 31.980469 C 85.503906 31.59375 85.828125 31.316406 86.246094 31.144531 C 86.664062 30.976562 87.089844 30.953125 87.523438 31.070312 C 87.957031 31.191406 88.3125 31.429688 88.585938 31.789062 C 88.859375 32.144531 88.996094 32.550781 88.996094 33 L 88.996094 53 C 88.996094 53.265625 88.945312 53.519531 88.84375 53.765625 C 88.742188 54.011719 88.597656 54.226562 88.410156 54.414062 C 88.222656 54.601562 88.003906 54.746094 87.761719 54.847656 C 87.515625 54.949219 87.261719 55 86.996094 55 C 86.730469 55 86.472656 54.949219 86.230469 54.847656 C 85.984375 54.746094 85.769531 54.601562 85.582031 54.414062 C 85.394531 54.226562 85.25 54.011719 85.148438 53.765625 C 85.046875 53.519531 84.996094 53.265625 84.996094 53 L 84.996094 40.21875 Z M 98.996094 41 L 98.996094 29.820312 L 112.175781 43 L 100.996094 43 C 100.730469 43 100.472656 42.949219 100.230469 42.847656 C 99.984375 42.746094 99.769531 42.601562 99.582031 42.414062 C 99.394531 42.226562 99.25 42.011719 99.148438 41.765625 C 99.046875 41.519531 98.996094 41.265625 98.996094 41 Z M 122.996094 123 L 118.996094 123 L 118.996094 45 C 118.992188 44.449219 118.796875 43.976562 118.414062 43.578125 L 98.414062 23.578125 C 98.019531 23.199219 97.546875 23.003906 96.996094 23 L 34.996094 23 L 34.996094 19 L 122.996094 19 Z M 122.996094 123 "/></g></g></svg>