<svg xmlns="http://www.w3.org/2000/svg" xmlns:xlink="http://www.w3.org/1999/xlink" width="200" zoomAndPan="magnify" viewBox="0 0 150 149.999998" height="200" preserveAspectRatio="xMidYMid meet" version="1.2"><g id="d3124599e9"><path style=" stroke:none;fill-rule:nonzero;fill:#682aeb;fill-opacity:1;" d="M 41.996094 15 L 107.933594 15 C 115.386719 15 122.136719 18.023438 127.054688 22.945312 C 131.90625 27.792969 135 34.613281 135 41.996094 L 135 107.933594 C 135 115.386719 131.90625 122.136719 127.054688 127.054688 C 122.136719 131.90625 115.386719 135 107.933594 135 L 41.996094 135 C 34.613281 135 27.792969 131.90625 22.945312 127.054688 C 18.023438 122.136719 15 115.386719 15 107.933594 L 15 41.996094 C 15 34.613281 18.023438 27.792969 22.945312 22.945312 C 27.792969 18.023438 34.613281 15 41.996094 15 Z M 107.933594 25.683594 L 41.996094 25.683594 C 37.496094 25.683594 33.417969 27.511719 30.464844 30.464844 C 27.511719 33.417969 25.683594 37.496094 25.683594 41.996094 L 25.683594 107.933594 C 25.683594 112.433594 27.511719 116.511719 30.464844 119.464844 C 33.417969 122.488281 37.496094 124.316406 41.996094 124.316406 L 107.933594 124.316406 C 112.433594 124.316406 116.511719 122.488281 119.464844 119.464844 C 122.488281 116.511719 124.316406 112.433594 124.316406 107.933594 L 124.316406 41.996094 C 124.316406 37.496094 122.488281 33.417969 119.464844 30.464844 C 116.511719 27.511719 112.433594 25.683594 107.933594 25.683594 Z M 107.933594 25.683594 "/><path style=" stroke:none;fill-rule:nonzero;fill:#682aeb;fill-opacity:1;" d="M 108.636719 35.949219 C 110.113281 35.949219 111.519531 36.511719 112.433594 37.496094 C 113.417969 38.480469 114.050781 39.816406 114.050781 41.292969 C 114.050781 42.769531 113.417969 44.175781 112.433594 45.085938 C 111.519531 46.070312 110.113281 46.703125 108.636719 46.703125 C 107.160156 46.703125 105.824219 46.070312 104.84375 45.085938 C 103.859375 44.175781 103.296875 42.769531 103.296875 41.292969 C 103.296875 39.816406 103.859375 38.480469 104.84375 37.496094 C 105.824219 36.511719 107.160156 35.949219 108.636719 35.949219 Z M 108.636719 35.949219 "/><path style=" stroke:none;fill-rule:nonzero;fill:#682aeb;fill-opacity:1;" d="M 74.964844 45.859375 C 83.050781 45.859375 90.289062 49.164062 95.5625 54.367188 C 100.835938 59.640625 104.140625 66.949219 104.140625 74.964844 C 104.140625 83.050781 100.835938 90.289062 95.5625 95.5625 C 90.289062 100.835938 83.050781 104.140625 74.964844 104.140625 C 66.949219 104.140625 59.640625 100.835938 54.367188 95.5625 C 49.164062 90.289062 45.859375 83.050781 45.859375 74.964844 C 45.859375 66.949219 49.164062 59.640625 54.367188 54.367188 C 59.640625 49.164062 66.949219 45.859375 74.964844 45.859375 Z M 87.96875 62.03125 C 84.667969 58.726562 80.027344 56.617188 74.964844 56.617188 C 69.902344 56.617188 65.332031 58.726562 62.03125 62.03125 C 58.726562 65.332031 56.617188 69.902344 56.617188 74.964844 C 56.617188 80.027344 58.726562 84.667969 62.03125 87.96875 C 65.332031 91.273438 69.902344 93.3125 74.964844 93.3125 C 80.027344 93.3125 84.667969 91.273438 87.96875 87.96875 C 91.273438 84.667969 93.3125 80.027344 93.3125 74.964844 C 93.3125 69.902344 91.273438 65.332031 87.96875 62.03125 Z M 87.96875 62.03125 "/></g></svg>